<svg width="156" height="25" viewBox="0 0 156 25" fill="none" xmlns="http://www.w3.org/2000/svg">
<path d="M144 18.76L136.947 22.708L138.522 14.78L132.587 9.292L140.614 8.34L144 1L147.386 8.34L155.413 9.292L149.478 14.78L151.053 22.708L144 18.76ZM144 16.468L148.247 18.845L147.298 14.072L150.871 10.767L146.038 10.194L144 5.775L141.962 10.195L137.129 10.767L140.702 14.072L139.753 18.845L144 16.468Z" fill="#7C8386"/>
<path d="M111 18.76L103.947 22.708L105.522 14.78L99.587 9.292L107.614 8.34L111 1L114.386 8.34L122.413 9.292L116.478 14.78L118.053 22.708L111 18.76ZM111 16.468L115.247 18.845L114.298 14.072L117.871 10.767L113.038 10.194L111 5.775L108.962 10.195L104.129 10.767L107.702 14.072L106.753 18.845L111 16.468Z" fill="#F69225"/>
<path d="M78 18.76L70.947 22.708L72.522 14.78L66.587 9.292L74.614 8.34L78 1L81.386 8.34L89.413 9.292L83.478 14.78L85.053 22.708L78 18.76ZM78 16.468L82.247 18.845L81.298 14.072L84.871 10.767L80.038 10.194L78 5.775L75.962 10.195L71.129 10.767L74.702 14.072L73.753 18.845L78 16.468Z" fill="#F69225"/>
<path d="M45 18.76L37.947 22.708L39.522 14.78L33.587 9.292L41.614 8.34L45 1L48.386 8.34L56.413 9.292L50.478 14.78L52.053 22.708L45 18.76ZM45 16.468L49.247 18.845L48.298 14.072L51.871 10.767L47.038 10.194L45 5.775L42.962 10.195L38.129 10.767L41.702 14.072L40.753 18.845L45 16.468Z" fill="#F69225"/>
<path d="M12 18.76L4.94704 22.708L6.52204 14.78L0.587036 9.292L8.61404 8.34L12 1L15.386 8.34L23.413 9.292L17.478 14.78L19.053 22.708L12 18.76ZM12 16.468L16.247 18.845L15.298 14.072L18.871 10.767L14.038 10.194L12 5.775L9.96204 10.195L5.12904 10.767L8.70204 14.072L7.75304 18.845L12 16.468Z" fill="#F69225"/>
</svg>
