<svg width="26" height="26" viewBox="0 0 26 26" fill="none" xmlns="http://www.w3.org/2000/svg">
<path d="M19 9.72885L7 3.60516" stroke="#F69225" stroke-width="2" stroke-linecap="round" stroke-linejoin="round"/>
<path d="M25 17.5162V8.07699C24.9995 7.66317 24.8761 7.25673 24.6421 6.89846C24.408 6.54018 24.0717 6.24267 23.6667 6.03576L14.3333 1.31615C13.9279 1.10904 13.4681 1 13 1C12.5319 1 12.0721 1.10904 11.6667 1.31615L2.33333 6.03576C1.92835 6.24267 1.59197 6.54018 1.35795 6.89846C1.12392 7.25673 1.00048 7.66317 1 8.07699V17.5162C1.00048 17.93 1.12392 18.3365 1.35795 18.6947C1.59197 19.053 1.92835 19.3505 2.33333 19.5574L11.6667 24.277C12.0721 24.4841 12.5319 24.5932 13 24.5932C13.4681 24.5932 13.9279 24.4841 14.3333 24.277L23.6667 19.5574C24.0717 19.3505 24.408 19.053 24.6421 18.6947C24.8761 18.3365 24.9995 17.93 25 17.5162Z" stroke="#F69225" stroke-width="2" stroke-linecap="round" stroke-linejoin="round"/>
<path d="M1.35999 6.84988L13 12.8084L24.64 6.84988" stroke="#F69225" stroke-width="2" stroke-linecap="round" stroke-linejoin="round"/>
<path d="M13 24.69V12.7966" stroke="#F69225" stroke-width="2" stroke-linecap="round" stroke-linejoin="round"/>
</svg>
