<svg width="112" height="88" viewBox="0 0 42 49" fill="none" xmlns="http://www.w3.org/2000/svg">
<path d="M41.1133 33.0911L39.1661 28.7093C39.1727 28.7027 39.1796 28.6967 39.1862 28.6901C40.0214 27.8561 40.4813 26.7463 40.4813 25.5653V21.0465C40.4813 20.0254 40.1218 18.7321 38.9711 17.7218C38.8037 7.95396 30.8071 0.059082 21.0001 0.059082C11.1931 0.059082 3.19647 7.95396 3.02903 17.7217C1.8789 18.732 1.51881 20.0249 1.51881 21.0465V25.5653C1.51881 26.7463 1.97875 27.8561 2.81265 28.6888C2.81959 28.6959 2.827 28.7022 2.83403 28.7092L0.886841 33.091C-0.139159 35.3996 0.069997 38.0416 1.44615 40.1583C2.82259 42.276 5.152 43.5403 7.67725 43.5403H8.72547L3.93756 45.3358C3.21034 45.6086 2.84181 46.4191 3.11462 47.1463C3.38743 47.8736 4.19818 48.2418 4.92512 47.9693L16.1272 43.7684L20.0057 47.6469C20.5548 48.196 21.4453 48.196 21.9945 47.6469L25.873 43.7684L37.0751 47.9693C37.802 48.2418 38.6127 47.8736 38.8856 47.1463C39.1583 46.4191 38.7899 45.6086 38.0627 45.3358L33.2747 43.5403H34.3229C36.8481 43.5403 39.1775 42.2761 40.5538 40.1586C41.9301 38.0416 42.1393 35.3996 41.1133 33.0911ZM30.1376 27.8087L26.1479 25.8139C24.5359 25.0077 22.7683 24.6048 21 24.6048C19.2321 24.6048 17.4638 25.0079 15.8523 25.8139L11.8624 27.8087V18.9613L16.016 17.1811C18.16 16.2626 19.8852 14.6908 21 12.7562C22.1147 14.6908 23.8398 16.2626 25.9836 17.181L30.1375 18.9613V27.8087H30.1376ZM37.6688 21.0465V25.5653C37.6688 25.9943 37.5018 26.3974 37.1973 26.7014C36.8946 27.0045 36.4916 27.1716 36.0626 27.1716H32.9501V19.4403H36.0626C36.938 19.4403 37.6688 20.1482 37.6688 21.0465ZM36.1625 29.9807V31.5903C36.1625 32.476 35.442 33.1966 34.5563 33.1966H32.3813C32.7513 32.2221 32.9501 31.1713 32.9501 30.0841V29.9841H36.0626C36.0961 29.9841 36.1292 29.9815 36.1625 29.9807ZM21.0001 2.87158C28.8868 2.87158 35.3853 8.92455 36.0968 16.6286C36.0854 16.6286 36.074 16.6278 36.0625 16.6278H31.8324L27.0915 14.5958C24.2454 13.3766 22.4063 10.5875 22.4063 7.49036C22.4063 6.71374 21.7767 6.08411 21.0001 6.08411C20.2234 6.08411 19.5938 6.71374 19.5938 7.49036C19.5938 10.5875 17.7547 13.3766 14.9083 14.596L10.1676 16.6279H5.93762C5.92619 16.6279 5.91475 16.6286 5.90331 16.6287C6.61478 8.92455 13.1133 2.87158 21.0001 2.87158ZM4.33131 21.0465C4.33131 20.1692 5.04072 19.4403 5.93753 19.4403H9.05003V27.1716H5.93753C5.50844 27.1716 5.1055 27.0046 4.80137 26.7002C4.49818 26.3975 4.33122 25.9944 4.33122 25.5654V21.0465H4.33131ZM15.0751 40.7278H7.67725C6.10778 40.7278 4.6599 39.9419 3.80425 38.6254C2.94906 37.3102 2.81922 35.6682 3.457 34.2331L5.36219 29.9459C5.55156 29.9704 5.74347 29.9841 5.93762 29.9841H9.05012V30.084C9.05012 33.4074 10.8965 36.3951 13.8688 37.8813L15.0751 38.4844V40.7278ZM24.1126 41.5512L21.0001 44.6637L17.8876 41.5512V39.6558C18.9034 39.9393 19.9516 40.0822 21.0002 40.0822C22.0485 40.0822 23.0968 39.9392 24.1127 39.6558V41.5512H24.1126ZM24.8897 36.3576C22.4542 37.5758 19.5459 37.5759 17.1102 36.3575L15.1265 35.3658C13.3672 34.4861 12.1903 32.8299 11.9214 30.9238L17.1105 28.3294C19.546 27.1112 22.4543 27.1112 24.89 28.3294L30.0789 30.9238C29.9635 31.7415 29.68 32.5125 29.2562 33.1966H27.0252C26.2486 33.1966 25.6189 33.8262 25.6189 34.6029C25.6189 35.0575 25.8355 35.4604 26.1701 35.7175L24.8897 36.3576ZM38.1958 38.6256C37.3402 39.9419 35.8923 40.7278 34.3229 40.7278H26.9251V38.4845L28.1314 37.8813C29.0917 37.4011 29.9337 36.7635 30.6347 36.0091H34.5563C36.1761 36.0091 37.5943 35.1325 38.3636 33.8292L38.5431 34.2333C39.1809 35.6682 39.0511 37.3102 38.1958 38.6256Z" fill="#263238"/>
<path d="M16.4812 22.4526C17.2579 22.4526 17.8875 21.823 17.8875 21.0464C17.8875 20.2697 17.2579 19.6401 16.4812 19.6401C15.7046 19.6401 15.075 20.2697 15.075 21.0464C15.075 21.823 15.7046 22.4526 16.4812 22.4526Z" fill="#263238"/>
<path d="M25.5188 22.4526C26.2954 22.4526 26.925 21.823 26.925 21.0464C26.925 20.2697 26.2954 19.6401 25.5188 19.6401C24.7421 19.6401 24.1125 20.2697 24.1125 21.0464C24.1125 21.823 24.7421 22.4526 25.5188 22.4526Z" fill="#263238"/>
</svg>
