<svg width="118" height="118" viewBox="0 0 118 118" fill="none" xmlns="http://www.w3.org/2000/svg">
<g clip-path="url(#clip0)">
<path fill-rule="evenodd" clip-rule="evenodd" d="M103.25 22.125H14.75C12.794 22.125 10.9182 22.902 9.53509 24.2851C8.15201 25.6682 7.375 27.544 7.375 29.5V88.5C7.375 90.456 8.15201 92.3318 9.53509 93.7149C10.9182 95.098 12.794 95.875 14.75 95.875H103.25C105.206 95.875 107.082 95.098 108.465 93.7149C109.848 92.3318 110.625 90.456 110.625 88.5V29.5C110.625 27.544 109.848 25.6682 108.465 24.2851C107.082 22.902 105.206 22.125 103.25 22.125ZM14.75 14.75C10.8381 14.75 7.08634 16.304 4.32018 19.0702C1.55401 21.8363 0 25.5881 0 29.5L0 88.5C0 92.4119 1.55401 96.1637 4.32018 98.9298C7.08634 101.696 10.8381 103.25 14.75 103.25H103.25C107.162 103.25 110.914 101.696 113.68 98.9298C116.446 96.1637 118 92.4119 118 88.5V29.5C118 25.5881 116.446 21.8363 113.68 19.0702C110.914 16.304 107.162 14.75 103.25 14.75H14.75Z" fill="#F69225"/>
<path d="M81.125 40.5625C81.125 39.5845 81.5135 38.6466 82.205 37.955C82.8966 37.2635 83.8345 36.875 84.8125 36.875H99.5625C100.54 36.875 101.478 37.2635 102.17 37.955C102.861 38.6466 103.25 39.5845 103.25 40.5625V47.9375C103.25 48.9155 102.861 49.8534 102.17 50.545C101.478 51.2365 100.54 51.625 99.5625 51.625H84.8125C83.8345 51.625 82.8966 51.2365 82.205 50.545C81.5135 49.8534 81.125 48.9155 81.125 47.9375V40.5625ZM7.375 66.375H110.625V81.125H7.375V66.375Z" fill="#F69225"/>
<path d="M97.35 80.3875H94.2156V70.0625C94.2156 66.8037 91.5745 64.1625 88.3156 64.1625H76.8844C73.6255 64.1625 70.9844 66.8037 70.9844 70.0625V80.3875H67.85C67.0341 80.3875 66.375 81.0466 66.375 81.8625V99.5625C66.375 100.378 67.0341 101.038 67.85 101.038H97.35C98.1659 101.038 98.825 100.378 98.825 99.5625V81.8625C98.825 81.0466 98.1659 80.3875 97.35 80.3875ZM83.8906 91.3117V93.7547C83.8906 93.9575 83.7247 94.1234 83.5219 94.1234H81.6781C81.4753 94.1234 81.3094 93.9575 81.3094 93.7547V91.3117C80.9289 91.0385 80.6449 90.6517 80.4983 90.2068C80.3516 89.762 80.3499 89.2821 80.4934 88.8362C80.6369 88.3903 80.9182 88.0015 81.2967 87.7256C81.6753 87.4498 82.1316 87.3011 82.6 87.3011C83.0684 87.3011 83.5247 87.4498 83.9033 87.7256C84.2818 88.0015 84.5631 88.3903 84.7066 88.8362C84.8501 89.2821 84.8484 89.762 84.7017 90.2068C84.5551 90.6517 84.2711 91.0385 83.8906 91.3117ZM90.8969 80.3875H74.3031V70.0625C74.3031 68.6382 75.4601 67.4813 76.8844 67.4813H88.3156C89.7399 67.4813 90.8969 68.6382 90.8969 70.0625V80.3875Z" fill="#263238"/>
</g>
<defs>
<clipPath id="clip0">
<rect width="118" height="118" fill="white"/>
</clipPath>
</defs>
</svg>
