<svg width="27" height="22" viewBox="0 0 27 22" fill="none" xmlns="http://www.w3.org/2000/svg">
<path fill-rule="evenodd" clip-rule="evenodd" d="M10.512 5.2836C10.208 3.0323 8.496 1.22513 6.704 1.17919C4.912 1.11793 3.71201 2.84852 4.01601 5.09982C4.32001 7.35112 6.032 9.21954 7.824 9.26549C9.616 9.31143 10.832 7.5349 10.512 5.2836ZM7.584 13.6302C4.912 13.6149 2.51199 15.1924 2.51199 17.0914C2.51199 19.0364 4.44799 20.6598 7.12 20.6598C10.88 20.6598 12.192 19.1283 12.192 17.1986C12.192 16.9536 12.16 16.7239 12.112 16.5094C11.808 15.4068 10.768 14.8707 9.328 13.9059C8.8 13.7374 8.208 13.6456 7.584 13.6302ZM10.768 1.11798C12.24 2.22065 13.024 3.38458 13.024 5.05389C13.024 6.46286 12.208 7.76462 11.056 8.62225C9.936 9.46457 9.712 9.81681 9.712 10.5366C9.712 11.1339 10.912 12.1753 11.552 12.6041C13.392 13.8446 13.984 14.9932 13.984 16.9229C13.984 19.3273 11.552 21.7164 7.136 21.7164C3.264 21.7164 0 20.2156 0 17.8111C0 15.3608 2.976 13.0176 6.848 13.0176L8.064 13.0023C7.536 12.5122 7.104 11.8996 7.104 11.1492C7.104 10.7204 7.264 10.2763 7.472 9.89338C7.248 9.9087 7.04 9.89338 6.816 9.89338C3.648 9.89338 1.52 7.67273 1.52 4.99264C1.52 2.3738 4.448 0 7.568 0H14.544L12.976 1.11798H10.768ZM21.712 5.52856V9.95447H20.56V5.52856H15.92V4.42591H20.56V0H21.712V4.42591H26.336V5.52856H21.712Z" fill="#B2B2B2"/>
</svg>
