<svg width="40" height="25" viewBox="0 0 40 25" fill="none" xmlns="http://www.w3.org/2000/svg">
<path d="M38.7527 13.4802C38.5878 13.4807 38.4244 13.4621 38.2718 13.4252C38.1192 13.3884 37.9804 13.334 37.8634 13.2654L19.9653 2.67498L2.06718 13.2654C1.82758 13.3867 1.51937 13.4501 1.20415 13.4429C0.888929 13.4357 0.589909 13.3585 0.366847 13.2266C0.143785 13.0947 0.0131098 12.9179 0.000934086 12.7315C-0.0112416 12.5451 0.0959794 12.3629 0.301171 12.2212L19.0886 1.11233C19.3232 0.974395 19.6407 0.896973 19.9716 0.896973C20.3025 0.896973 20.6199 0.974395 20.8546 1.11233L39.642 12.2212C39.8143 12.3251 39.931 12.4568 39.9775 12.5998C40.024 12.7428 39.9981 12.8907 39.9032 13.025C39.8084 13.1594 39.6486 13.2742 39.444 13.3551C39.2393 13.4361 38.9989 13.4796 38.7527 13.4802Z" fill="black"/>
<path d="M19.9652 5.17819L4.9353 14.0949V23.1079C4.9353 23.5007 5.19922 23.8775 5.669 24.1553C6.13877 24.433 6.77592 24.5891 7.44029 24.5891H16.2077V17.1832H23.7227V24.5891H32.4901C33.1545 24.5891 33.7916 24.433 34.2614 24.1553C34.7312 23.8775 34.9951 23.5007 34.9951 23.1079V14.0431L19.9652 5.17819Z" fill="black"/>
</svg>
