<svg width="20" height="19" viewBox="0 0 20 19" fill="none" xmlns="http://www.w3.org/2000/svg">
<path d="M10.3182 4.56163C7.65807 4.56163 5.5112 6.70851 5.5112 9.36867C5.5112 12.0288 7.65807 14.1757 10.3182 14.1757C12.9784 14.1757 15.1253 12.0288 15.1253 9.36867C15.1253 6.70851 12.9784 4.56163 10.3182 4.56163ZM10.3182 12.4929C8.59791 12.4929 7.19401 11.089 7.19401 9.36867C7.19401 7.64835 8.59791 6.24445 10.3182 6.24445C12.0385 6.24445 13.4424 7.64835 13.4424 9.36867C13.4424 11.089 12.0385 12.4929 10.3182 12.4929ZM15.3221 3.24445C14.701 3.24445 14.1995 3.74601 14.1995 4.3671C14.1995 4.9882 14.701 5.48976 15.3221 5.48976C15.9432 5.48976 16.4448 4.99054 16.4448 4.3671C16.445 4.21962 16.4161 4.07355 16.3597 3.93726C16.3034 3.80097 16.2207 3.67714 16.1164 3.57285C16.0121 3.46857 15.8883 3.38588 15.752 3.32953C15.6157 3.27317 15.4696 3.24426 15.3221 3.24445ZM19.6885 9.36867C19.6885 8.07492 19.7003 6.79288 19.6276 5.50148C19.5549 4.00148 19.2128 2.67023 18.1159 1.57335C17.0167 0.474134 15.6878 0.134291 14.1878 0.0616346C12.894 -0.0110216 11.612 0.000697135 10.3206 0.000697135C9.02682 0.000697135 7.74479 -0.0110216 6.45338 0.0616346C4.95338 0.134291 3.62213 0.476478 2.52526 1.57335C1.42604 2.67257 1.0862 4.00148 1.01354 5.50148C0.940883 6.79523 0.952601 8.07726 0.952601 9.36867C0.952601 10.6601 0.940883 11.9444 1.01354 13.2359C1.0862 14.7359 1.42838 16.0671 2.52526 17.164C3.62448 18.2632 4.95338 18.603 6.45338 18.6757C7.74713 18.7484 9.02916 18.7366 10.3206 18.7366C11.6143 18.7366 12.8964 18.7484 14.1878 18.6757C15.6878 18.603 17.019 18.2609 18.1159 17.164C19.2151 16.0648 19.5549 14.7359 19.6276 13.2359C19.7026 11.9444 19.6885 10.6624 19.6885 9.36867ZM17.626 14.8952C17.4549 15.3218 17.2487 15.6405 16.9182 15.9687C16.5878 16.2991 16.2714 16.5054 15.8448 16.6765C14.612 17.1663 11.6846 17.0562 10.3182 17.0562C8.95182 17.0562 6.02213 17.1663 4.78932 16.6788C4.36276 16.5077 4.04401 16.3015 3.71588 15.971C3.38541 15.6405 3.17916 15.3241 3.00807 14.8976C2.52057 13.6624 2.63073 10.7351 2.63073 9.36867C2.63073 8.00226 2.52057 5.07257 3.00807 3.83976C3.17916 3.4132 3.38541 3.09445 3.71588 2.76632C4.04635 2.4382 4.36276 2.2296 4.78932 2.05851C6.02213 1.57101 8.95182 1.68117 10.3182 1.68117C11.6846 1.68117 14.6143 1.57101 15.8471 2.05851C16.2737 2.2296 16.5924 2.43585 16.9206 2.76632C17.251 3.09679 17.4573 3.4132 17.6284 3.83976C18.1159 5.07257 18.0057 8.00226 18.0057 9.36867C18.0057 10.7351 18.1159 13.6624 17.626 14.8952Z" fill="#F69225"/>
</svg>
