<svg width="20" height="20" viewBox="0 0 20 20" fill="none" xmlns="http://www.w3.org/2000/svg">
<path d="M9.95177 5.19298C7.29161 5.19298 5.14474 7.33986 5.14474 10C5.14474 12.6602 7.29161 14.807 9.95177 14.807C12.6119 14.807 14.7588 12.6602 14.7588 10C14.7588 7.33986 12.6119 5.19298 9.95177 5.19298ZM9.95177 13.1242C8.23146 13.1242 6.82755 11.7203 6.82755 10C6.82755 8.2797 8.23146 6.87579 9.95177 6.87579C11.6721 6.87579 13.076 8.2797 13.076 10C13.076 11.7203 11.6721 13.1242 9.95177 13.1242ZM14.9557 3.87579C14.3346 3.87579 13.833 4.37736 13.833 4.99845C13.833 5.61954 14.3346 6.12111 14.9557 6.12111C15.5768 6.12111 16.0783 5.62189 16.0783 4.99845C16.0785 4.85097 16.0496 4.7049 15.9933 4.56861C15.9369 4.43232 15.8542 4.30849 15.7499 4.2042C15.6456 4.09992 15.5218 4.01723 15.3855 3.96088C15.2492 3.90452 15.1032 3.87561 14.9557 3.87579ZM19.3221 10C19.3221 8.70626 19.3338 7.42423 19.2611 6.13283C19.1885 4.63283 18.8463 3.30158 17.7494 2.2047C16.6502 1.10548 15.3213 0.765639 13.8213 0.692982C12.5276 0.620326 11.2455 0.632045 9.95411 0.632045C8.66036 0.632045 7.37833 0.620326 6.08693 0.692982C4.58693 0.765639 3.25568 1.10783 2.1588 2.2047C1.05958 3.30392 0.71974 4.63283 0.647084 6.13283C0.574428 7.42658 0.586146 8.70861 0.586146 10C0.586146 11.2914 0.574428 12.5758 0.647084 13.8672C0.71974 15.3672 1.06193 16.6985 2.1588 17.7953C3.25802 18.8945 4.58693 19.2344 6.08693 19.307C7.38068 19.3797 8.66271 19.368 9.95411 19.368C11.2479 19.368 12.5299 19.3797 13.8213 19.307C15.3213 19.2344 16.6526 18.8922 17.7494 17.7953C18.8486 16.6961 19.1885 15.3672 19.2611 13.8672C19.3361 12.5758 19.3221 11.2938 19.3221 10ZM17.2596 15.5266C17.0885 15.9531 16.8822 16.2719 16.5518 16.6C16.2213 16.9305 15.9049 17.1367 15.4783 17.3078C14.2455 17.7977 11.3182 17.6875 9.95177 17.6875C8.58536 17.6875 5.65568 17.7977 4.42287 17.3102C3.9963 17.1391 3.67755 16.9328 3.34943 16.6024C3.01896 16.2719 2.81271 15.9555 2.64162 15.5289C2.15412 14.2938 2.26427 11.3664 2.26427 10C2.26427 8.63361 2.15412 5.70392 2.64162 4.47111C2.81271 4.04454 3.01896 3.72579 3.34943 3.39767C3.6799 3.06954 3.9963 2.86095 4.42287 2.68986C5.65568 2.20236 8.58536 2.31251 9.95177 2.31251C11.3182 2.31251 14.2479 2.20236 15.4807 2.68986C15.9072 2.86095 16.226 3.0672 16.5541 3.39767C16.8846 3.72814 17.0908 4.04454 17.2619 4.47111C17.7494 5.70392 17.6393 8.63361 17.6393 10C17.6393 11.3664 17.7494 14.2938 17.2596 15.5266Z" fill="#B2B2B2"/>
</svg>
