<svg width="50" height="50" viewBox="0 0 50 50" fill="none" xmlns="http://www.w3.org/2000/svg">
<path d="M37.437 16.039L33.8394 16.4179L35.4097 8.746C35.5507 8.05472 35.8765 7.41462 36.3526 6.89389C36.8286 6.37317 37.4369 5.9913 38.1128 5.78897L45.3354 3.61709C46.769 3.1874 48.2144 4.25772 48.2144 5.75772C48.2144 7.16787 46.812 8.15225 45.4878 7.67178L44.4839 7.44522L40.437 8.64444C40.0435 8.76155 39.6875 8.97968 39.4045 9.27711C39.1214 9.57454 38.9212 9.94091 38.8237 10.3397L37.437 16.039Z" fill="#263238"/>
<path d="M33.707 32.3242L31.2031 42.9688L28.1602 41.8945L30.0352 32.3242H33.707Z" fill="#263238"/>
<path d="M31.9375 39.8438H7.35938V43.0977H31.3828L31.9375 39.8438Z" fill="#263238"/>
<path d="M0.760732 18.7814L3.65526 32.8907C3.87792 33.9845 4.83886 34.7657 5.95214 34.7657H32.7178C32.8945 34.7659 33.066 34.706 33.2044 34.5961C33.3427 34.4861 33.4397 34.3325 33.4795 34.1603L38.1748 13.8439C38.2959 13.3243 37.874 12.8439 37.3428 12.8907L2.84667 15.9767C2.51793 16.006 2.1991 16.1044 1.91107 16.2655C1.62304 16.4267 1.37233 16.6469 1.17537 16.9117C0.978408 17.1765 0.83965 17.48 0.768193 17.8022C0.696736 18.1244 0.694194 18.4581 0.760732 18.7814ZM6.20995 19.2071L7.87401 19.0587C8.0362 19.0441 8.19964 19.0635 8.35393 19.1155C8.50822 19.1676 8.64997 19.2512 8.77014 19.3611C8.89032 19.471 8.98628 19.6047 9.05191 19.7538C9.11755 19.9028 9.15141 20.0638 9.15136 20.2267V22.1095C9.15136 22.7579 8.62792 23.2814 7.97948 23.2814H6.22948C5.67479 23.2814 5.19433 22.8907 5.08104 22.3439L4.82323 21.0782C4.77767 20.8628 4.77835 20.6402 4.82525 20.4251C4.87215 20.21 4.96419 20.0073 5.09527 19.8304C5.22636 19.6536 5.39352 19.5065 5.58568 19.3991C5.77783 19.2916 5.99062 19.2262 6.20995 19.2071ZM21.1357 26.4025H23.3545C24.0029 26.4025 24.5264 26.9259 24.5264 27.5743V30.0782C24.5264 30.7267 24.0029 31.2501 23.3545 31.2501H21.1357C20.4873 31.2501 19.9639 30.7267 19.9639 30.0782V27.5743C19.9639 26.9259 20.4873 26.4025 21.1357 26.4025ZM23.3545 23.2775H21.1357C20.4873 23.2775 19.9639 22.754 19.9639 22.1056V19.047C19.9639 18.4415 20.4287 17.9337 21.0303 17.879L23.249 17.6798C23.4112 17.6652 23.5746 17.6846 23.7289 17.7366C23.8832 17.7887 24.025 17.8723 24.1451 17.9822C24.2653 18.0921 24.3613 18.2258 24.4269 18.3748C24.4925 18.5239 24.5264 18.6849 24.5264 18.8478V22.1056C24.5264 22.754 24.0029 23.2775 23.3545 23.2775ZM16.8389 27.5743V30.0782C16.8389 30.7267 16.3154 31.2501 15.667 31.2501H13.4482C12.7998 31.2501 12.2764 30.7267 12.2764 30.0782V27.5743C12.2764 26.9259 12.7998 26.4025 13.4482 26.4025H15.667C16.3154 26.4025 16.8389 26.9259 16.8389 27.5743ZM15.667 23.2775H13.4482C12.7998 23.2775 12.2764 22.754 12.2764 22.1056V19.7345C12.2764 19.129 12.7412 18.6212 13.3428 18.5665L15.5615 18.3673C15.7237 18.3527 15.8871 18.3721 16.0414 18.4241C16.1957 18.4762 16.3375 18.5598 16.4576 18.6697C16.5778 18.7796 16.6738 18.9133 16.7394 19.0623C16.805 19.2114 16.8389 19.3724 16.8389 19.5353V22.1056C16.8389 22.754 16.3154 23.2775 15.667 23.2775ZM33.5342 18.3009L32.5928 22.3673C32.5331 22.6251 32.3879 22.855 32.1807 23.0196C31.9736 23.1842 31.7167 23.2737 31.4521 23.2736H28.8232C28.1748 23.2736 27.6514 22.7501 27.6514 22.1017V18.3595C27.6514 17.754 28.1162 17.2462 28.7178 17.1915L32.2842 16.8712C33.081 16.8009 33.7139 17.5275 33.5342 18.3009ZM29.2998 31.2501H28.4365C28.0068 31.2501 27.6553 30.8986 27.6553 30.4689V27.5743C27.6553 26.9259 28.1787 26.4025 28.8271 26.4025H30.1904C30.9443 26.4025 31.5029 27.1056 31.331 27.84L30.8232 30.0431C30.7423 30.3864 30.5479 30.6924 30.2714 30.9115C29.9949 31.1305 29.6525 31.2498 29.2998 31.2501ZM6.15136 27.5626C6.02636 26.9611 6.48729 26.3986 7.10058 26.3986H7.97948C8.62792 26.3986 9.15136 26.922 9.15136 27.5704V30.2775C9.15136 30.4047 9.1263 30.5306 9.07761 30.6482C9.02893 30.7657 8.95757 30.8725 8.86762 30.9625C8.77766 31.0524 8.67087 31.1238 8.55333 31.1725C8.4358 31.2212 8.30982 31.2462 8.18261 31.2462C7.44042 31.2462 6.79979 30.7228 6.65136 29.9962L6.15136 27.5626Z" fill="#F69225"/>
<path d="M29.5074 45.832C31.8805 45.832 33.8043 43.9083 33.8043 41.5352C33.8043 39.1621 31.8805 37.2383 29.5074 37.2383C27.1343 37.2383 25.2106 39.1621 25.2106 41.5352C25.2106 43.9083 27.1343 45.832 29.5074 45.832Z" fill="#263238"/>
<path d="M29.5078 43.5387C30.6145 43.5387 31.5117 42.6416 31.5117 41.5348C31.5117 40.4281 30.6145 39.5309 29.5078 39.5309C28.4011 39.5309 27.5039 40.4281 27.5039 41.5348C27.5039 42.6416 28.4011 43.5387 29.5078 43.5387Z" fill="#263238"/>
<path d="M8.86694 45.832C11.24 45.832 13.1638 43.9083 13.1638 41.5352C13.1638 39.1621 11.24 37.2383 8.86694 37.2383C6.49385 37.2383 4.57007 39.1621 4.57007 41.5352C4.57007 43.9083 6.49385 45.832 8.86694 45.832Z" fill="#263238"/>
<path d="M8.86731 43.5387C9.97404 43.5387 10.8712 42.6416 10.8712 41.5348C10.8712 40.4281 9.97404 39.5309 8.86731 39.5309C7.76058 39.5309 6.8634 40.4281 6.8634 41.5348C6.8634 42.6416 7.76058 43.5387 8.86731 43.5387Z" fill="#263238"/>
<path d="M46.3241 9.24213C47.9227 9.24213 49.2186 7.9462 49.2186 6.3476C49.2186 4.74899 47.9227 3.45306 46.3241 3.45306C44.7255 3.45306 43.4296 4.74899 43.4296 6.3476C43.4296 7.9462 44.7255 9.24213 46.3241 9.24213Z" fill="#263238"/>
</svg>
