<svg width="145" height="24" viewBox="0 0 145 24" fill="none" xmlns="http://www.w3.org/2000/svg">
<g clip-path="url(#clip0)">
<path d="M133.319 17.7016L126.795 21.3535L128.252 14.0202L122.762 8.94389L130.187 8.06331L133.319 1.27393L136.451 8.06331L143.876 8.94389L138.386 14.0202L139.843 21.3535L133.319 17.7016ZM133.319 15.5816L137.247 17.7803L136.37 13.3653L139.675 10.3082L135.204 9.77823L133.319 5.69072L131.434 9.77915L126.963 10.3082L130.268 13.3653L129.391 17.7803L133.319 15.5816Z" fill="#F69225"/>
</g>
<g clip-path="url(#clip1)">
<path d="M102.795 17.7016L96.2706 21.3535L97.7275 14.0202L92.2377 8.94389L99.6625 8.06331L102.795 1.27393L105.927 8.06331L113.351 8.94389L107.862 14.0202L109.318 21.3535L102.795 17.7016ZM102.795 15.5816L106.723 17.7803L105.845 13.3653L109.15 10.3082L104.68 9.77823L102.795 5.69072L100.909 9.77915L96.439 10.3082L99.7439 13.3653L98.8661 17.7803L102.795 15.5816Z" fill="#F69225"/>
</g>
<g clip-path="url(#clip2)">
<path d="M72.2701 17.7016L65.7462 21.3535L67.203 14.0202L61.7133 8.94389L69.1381 8.06331L72.2701 1.27393L75.4021 8.06331L82.8269 8.94389L77.3372 14.0202L78.794 21.3535L72.2701 17.7016ZM72.2701 15.5816L76.1985 17.7803L75.3207 13.3653L78.6257 10.3082L74.1552 9.77823L72.2701 5.69072L70.385 9.77915L65.9145 10.3082L69.2195 13.3653L68.3417 17.7803L72.2701 15.5816Z" fill="#F69225"/>
</g>
<g clip-path="url(#clip3)">
<path d="M41.7455 17.7016L35.2216 21.3535L36.6785 14.0202L31.1887 8.94389L38.6135 8.06331L41.7455 1.27393L44.8775 8.06331L52.3024 8.94389L46.8126 14.0202L48.2694 21.3535L41.7455 17.7016ZM41.7455 15.5816L45.6739 17.7803L44.7961 13.3653L48.1011 10.3082L43.6306 9.77823L41.7455 5.69072L39.8604 9.77915L35.39 10.3082L38.6949 13.3653L37.8171 17.7803L41.7455 15.5816Z" fill="#F69225"/>
</g>
<g clip-path="url(#clip4)">
<path d="M11.2211 17.7016L4.69721 21.3535L6.15405 14.0202L0.664276 8.94389L8.08912 8.06331L11.2211 1.27393L14.3531 8.06331L21.778 8.94389L16.2882 14.0202L17.745 21.3535L11.2211 17.7016ZM11.2211 15.5816L15.1495 17.7803L14.2717 13.3653L17.5767 10.3082L13.1062 9.77823L11.2211 5.69072L9.336 9.77915L4.86555 10.3082L8.17052 13.3653L7.29271 17.7803L11.2211 15.5816Z" fill="#F69225"/>
</g>
<defs>
<clipPath id="clip0">
<rect width="22.1996" height="22.1996" fill="white" transform="translate(122.219 0.811523)"/>
</clipPath>
<clipPath id="clip1">
<rect width="22.1996" height="22.1996" fill="white" transform="translate(91.6947 0.811523)"/>
</clipPath>
<clipPath id="clip2">
<rect width="22.1996" height="22.1996" fill="white" transform="translate(61.1703 0.811523)"/>
</clipPath>
<clipPath id="clip3">
<rect width="22.1996" height="22.1996" fill="white" transform="translate(30.6458 0.811523)"/>
</clipPath>
<clipPath id="clip4">
<rect width="22.1996" height="22.1996" fill="white" transform="translate(0.121338 0.811523)"/>
</clipPath>
</defs>
</svg>
