<svg width="107" height="118" viewBox="0 0 107 118" fill="none" xmlns="http://www.w3.org/2000/svg">
<path d="M84.034 83.813L73.0798 80.1623L69.1473 72.2971C72.6901 68.6912 75.1499 63.92 75.9793 58.9435L76.4698 56.0039H80.6641C84.4765 56.0039 87.5781 52.9023 87.5781 49.0898V34.5703C87.5781 15.5082 72.0699 0 53.0078 0C33.8969 0 18.4375 15.4638 18.4375 34.5703V49.0898C18.4375 52.0942 20.3644 54.6561 23.0469 55.6075V58.3086C23.0469 62.121 26.1485 65.2227 29.9609 65.2227H31.9849C32.984 67.393 34.2772 69.4031 35.8508 71.2089C36.1771 71.5841 36.5175 71.9477 36.8662 72.3015L32.9358 80.1623L21.9814 83.8132C9.24456 88.0603 0 101.469 0 115.695C0 116.968 1.03181 118 2.30469 118H103.711C104.984 118 106.016 116.968 106.016 115.695C106.016 101.469 96.7713 88.0603 84.034 83.813ZM82.9688 49.0898C82.9688 50.3606 81.9349 51.3945 80.6641 51.3945H77.1467C77.7325 46.8566 78.1229 42.0276 78.2799 37.2714C78.2845 37.1373 78.2882 37.0068 78.2923 36.875H82.9688V49.0898ZM25.3516 51.3945C24.0808 51.3945 23.0469 50.3606 23.0469 49.0898V36.875H27.7249C27.7325 37.1154 27.7406 37.3569 27.7496 37.6001C27.7498 37.6083 27.7503 37.6164 27.7505 37.6247C27.7505 37.6254 27.7505 37.6261 27.7505 37.6268C27.9118 42.2528 28.2972 46.9564 28.8697 51.3943H25.3516V51.3945ZM29.9609 60.6133C28.6901 60.6133 27.6562 59.5794 27.6562 58.3086V56.0039H29.5456L30.0361 58.9445C30.1296 59.5033 30.2446 60.0602 30.3776 60.6133H29.9609ZM27.6602 32.2656H23.1345C24.3018 16.8194 37.1924 4.60938 53.0078 4.60938C68.753 4.60938 81.7002 16.8178 82.8809 32.2656H78.3557C78.1898 19.5375 67.8249 9.21875 55.0707 9.21875H50.9453C38.1914 9.21875 27.8259 19.5375 27.6602 32.2656ZM50.9451 13.8281H55.0705C65.3976 13.8281 73.756 22.275 73.75 32.5906C73.75 33.3159 73.7442 33.9474 73.732 34.5219C73.732 34.5293 73.7318 34.5369 73.7318 34.5445L70.8491 34.1327C63.0178 33.0144 55.6234 29.3172 50.0281 23.7219C49.5957 23.2898 49.0096 23.0469 48.3984 23.0469C42.209 23.0469 36.2841 25.8669 32.3675 30.6311C33.3327 21.2467 41.2661 13.8281 50.9451 13.8281ZM35.1557 60.6133C34.002 56.7753 32.6819 45.4823 32.3901 38.2456L35.492 34.1096C38.3408 30.3124 42.7729 27.9531 47.4876 27.6823C53.6912 33.586 61.7165 37.4846 70.1973 38.6955L73.5903 39.1804C73.3635 43.9937 72.9 48.8239 72.2361 53.2662C72.2358 53.2676 72.2356 53.2692 72.2354 53.2708C72.0243 54.699 71.8579 55.6181 71.4329 58.1853C70.2123 65.5061 64.7497 72.1264 57.5386 73.9293C54.5709 74.6703 51.4443 74.67 48.4782 73.9293C43.9755 72.8037 39.8469 69.6882 37.1824 65.2227H41.8808C42.8322 67.9051 45.3938 69.832 48.3984 69.832H53.0078C56.8278 69.832 59.9219 66.7382 59.9219 62.918C59.9219 59.1056 56.8202 56.0039 53.0078 56.0039H48.3984C45.327 56.0039 42.8031 57.9878 41.8769 60.6133H35.1557ZM48.2046 78.5935C49.7854 78.9266 51.3971 79.0969 53.0078 79.0969C54.2687 79.0969 55.5298 78.9913 56.7767 78.7867L52.7043 83.0934L48.2046 78.5935ZM49.5358 86.444L42.2258 94.1744C40.2133 90.3223 38.4841 86.3133 37.0658 82.2091L39.8109 76.7189L49.5358 86.444ZM65.814 75.9381L68.9493 82.2089C67.5287 86.32 65.7991 90.3304 63.7887 94.1778L55.9647 86.3539L65.814 75.9381ZM46.0938 62.918C46.0938 61.6455 47.1258 60.6133 48.3984 60.6133H53.0078C54.2786 60.6133 55.3125 61.6472 55.3125 62.918C55.3125 64.1906 54.2802 65.2227 53.0078 65.2227H48.3984C47.1276 65.2227 46.0938 64.1888 46.0938 62.918ZM4.70156 113.391C5.61491 101.973 13.2132 91.5959 23.4391 88.1859L33.1405 84.9529C34.9179 89.8676 37.1198 94.6445 39.7003 99.182C39.7047 99.1898 39.7088 99.1977 39.7132 99.2053C39.7132 99.2055 39.7135 99.2055 39.7135 99.2057C41.5989 102.522 43.7211 105.763 46.0218 108.839L48.8571 113.391H4.70156ZM53.0078 111.336L49.8822 106.318C49.8472 106.262 49.8098 106.207 49.7702 106.154C47.9039 103.665 46.1629 101.061 44.5773 98.3963L52.7965 89.7044L61.457 98.365C59.8608 101.049 58.1138 103.664 56.2459 106.154C56.133 106.304 56.2931 106.067 53.0078 111.336ZM57.1586 113.391L59.9936 108.839C62.3045 105.751 64.4418 102.484 66.3462 99.1292C66.3577 99.1089 66.3685 99.0882 66.3801 99.0679C66.3815 99.0654 66.3828 99.0631 66.3842 99.0605C68.9321 94.5664 71.1109 89.831 72.8751 84.9529L82.5763 88.1859C92.8024 91.5959 100.401 101.973 101.314 113.391H57.1586Z" fill="#F69225"/>
</svg>
