<svg width="40" height="25" viewBox="0 0 40 25" fill="none" xmlns="http://www.w3.org/2000/svg">
<path d="M34.5455 6.82H29.0909V0.896973H3.63636C1.63636 0.896973 0 2.22965 0 3.85849V20.1468H3.63636C3.63636 22.6049 6.07273 24.5891 9.09091 24.5891C12.1091 24.5891 14.5455 22.6049 14.5455 20.1468H25.4545C25.4545 22.6049 27.8909 24.5891 30.9091 24.5891C33.9273 24.5891 36.3636 22.6049 36.3636 20.1468H40V12.743L34.5455 6.82ZM9.09091 22.3679C7.58182 22.3679 6.36364 21.3758 6.36364 20.1468C6.36364 18.9178 7.58182 17.9257 9.09091 17.9257C10.6 17.9257 11.8182 18.9178 11.8182 20.1468C11.8182 21.3758 10.6 22.3679 9.09091 22.3679ZM33.6364 9.04113L37.2 12.743H29.0909V9.04113H33.6364ZM30.9091 22.3679C29.4 22.3679 28.1818 21.3758 28.1818 20.1468C28.1818 18.9178 29.4 17.9257 30.9091 17.9257C32.4182 17.9257 33.6364 18.9178 33.6364 20.1468C33.6364 21.3758 32.4182 22.3679 30.9091 22.3679Z" fill="black"/>
</svg>
