<svg width="26" height="20" viewBox="0 0 26 20" fill="none" xmlns="http://www.w3.org/2000/svg">
<path fill-rule="evenodd" clip-rule="evenodd" d="M25.3279 2.29725C24.4159 2.68013 23.4239 2.94048 22.3839 3.063C23.4399 2.46572 24.2559 1.50087 24.6399 0.352245C23.6479 0.9189 22.5599 1.31709 21.3919 1.54682C20.4479 0.597285 19.1199 0 17.6479 0C14.8159 0 12.5119 2.19005 12.5119 4.9008C12.5119 5.28368 12.5599 5.65124 12.6399 6.00348C8.38394 5.80439 4.60794 3.85938 2.07994 0.88827C1.63194 1.62339 1.37594 2.46572 1.37594 3.35399C1.37594 5.05395 2.28794 6.55482 3.66394 7.42778C2.81594 7.41246 2.03194 7.18274 1.34394 6.81518V6.87644C1.34394 9.25026 3.10394 11.2259 5.45594 11.6853C5.02394 11.7926 4.57594 11.8538 4.09594 11.8538C3.77594 11.8538 3.45594 11.8232 3.13594 11.7619C3.79194 13.7069 5.67994 15.1312 7.91994 15.1619C6.17594 16.4789 3.96794 17.26 1.55194 17.26C1.15194 17.26 0.735938 17.2447 0.335938 17.1987C2.60794 18.5771 5.29594 19.3888 8.19194 19.3888C17.6319 19.3888 22.7839 11.9304 22.7839 5.46746L22.7679 4.82423C23.7759 4.13505 24.6399 3.27741 25.3279 2.29725Z" fill="#F69225"/>
</svg>
