<svg width="112" height="88" viewBox="0 0 112 88" fill="none" xmlns="http://www.w3.org/2000/svg">
<path d="M111.68 42.44L99.68 14.44C99.3738 13.717 98.8616 13.1001 98.2072 12.6662C97.5528 12.2323 96.7852 12.0006 96 12H84V4C84 2.93913 83.5786 1.92172 82.8284 1.17157C82.0783 0.421428 81.0609 0 80 0H4C2.93913 0 1.92172 0.421428 1.17157 1.17157C0.421427 1.92172 0 2.93913 0 4V72C0 73.0609 0.421427 74.0783 1.17157 74.8284C1.92172 75.5786 2.93913 76 4 76H12.56C13.4811 79.3895 15.492 82.3817 18.2824 84.5149C21.0728 86.6482 24.4876 87.804 28 87.804C31.5124 87.804 34.9272 86.6482 37.7176 84.5149C40.508 82.3817 42.5189 79.3895 43.44 76H68.56C69.4811 79.3895 71.492 82.3817 74.2824 84.5149C77.0728 86.6482 80.4876 87.804 84 87.804C87.5124 87.804 90.9272 86.6482 93.7176 84.5149C96.508 82.3817 98.5189 79.3895 99.44 76H108C109.061 76 110.078 75.5786 110.828 74.8284C111.579 74.0783 112 73.0609 112 72V44C111.999 43.4638 111.89 42.9333 111.68 42.44ZM84 20H93.36L101.92 40H84V20ZM28 80C26.4177 80 24.871 79.5308 23.5554 78.6518C22.2398 77.7727 21.2145 76.5233 20.609 75.0615C20.0035 73.5997 19.845 71.9911 20.1537 70.4393C20.4624 68.8874 21.2243 67.462 22.3431 66.3432C23.462 65.2243 24.8874 64.4624 26.4393 64.1537C27.9911 63.845 29.5997 64.0035 31.0615 64.609C32.5233 65.2145 33.7727 66.2399 34.6518 67.5554C35.5308 68.871 36 70.4178 36 72C36 74.1217 35.1571 76.1566 33.6569 77.6569C32.1566 79.1572 30.1217 80 28 80ZM68.56 68H43.44C42.5189 64.6105 40.508 61.6183 37.7176 59.4851C34.9272 57.3518 31.5124 56.196 28 56.196C24.4876 56.196 21.0728 57.3518 18.2824 59.4851C15.492 61.6183 13.4811 64.6105 12.56 68H8V8H76V58.24C74.1786 59.2971 72.5838 60.7035 71.307 62.3783C70.0303 64.0532 69.0968 65.9636 68.56 68ZM84 80C82.4177 80 80.871 79.5308 79.5554 78.6518C78.2398 77.7727 77.2145 76.5233 76.609 75.0615C76.0035 73.5997 75.845 71.9911 76.1537 70.4393C76.4624 68.8874 77.2243 67.462 78.3431 66.3432C79.462 65.2243 80.8874 64.4624 82.4393 64.1537C83.9911 63.845 85.5997 64.0035 87.0615 64.609C88.5233 65.2145 89.7727 66.2399 90.6518 67.5554C91.5308 68.871 92 70.4178 92 72C92 74.1217 91.1571 76.1566 89.6569 77.6569C88.1566 79.1572 86.1217 80 84 80ZM104 68H99.44C98.5555 64.5741 96.5603 61.538 93.7666 59.3668C90.9729 57.1955 87.5382 56.0115 84 56V48H104V68Z" fill="#F69225"/>
</svg>
