<svg width="1142" height="650" viewBox="0 0 1142 650" fill="none" xmlns="http://www.w3.org/2000/svg">
<g clip-path="url(#clip0)">
<path d="M501.275 421.35L502.062 466.213H501.675L488.65 421.35H467.3V477.863H481.425L480.638 431.438H481.025L494.962 477.863H515.4V421.35H501.275ZM232.137 421.35L221.463 478.45H236.887L244.762 426.5H245.088L252.775 478.45H268.075L257.525 421.35H232.137ZM318.462 421.35L311.425 464.9H311.038L303.938 421.35H280.625L279.512 478.45H293.837L294.225 427.088H294.35L303.925 478.45H318.438L328.012 427.088H328.4L328.788 478.45H343.113L341.75 421.35H318.462ZM197.362 462.238C197.95 463.538 197.75 465.488 197.562 466.4C197.175 468.35 195.8 470.238 192.025 470.238C188.375 470.238 186.3 468.15 186.3 465.1V459.563H171V463.925C171 476.75 181.088 480.525 191.838 480.525C202.125 480.525 210.712 476.95 212.087 467.575C212.875 462.625 212.287 459.375 212.087 458.2C209.412 446.15 187.612 442.775 186.113 436.063C185.911 435.052 185.911 434.011 186.113 433C186.5 431.113 187.8 429.163 191.25 429.163C194.7 429.163 196.587 431.25 196.587 434.3V437.75H210.913V433.775C210.913 421.338 199.65 419.45 191.638 419.45C181.475 419.45 173.087 422.838 171.587 432.013C171.071 434.557 171.139 437.186 171.788 439.7C174.062 451.488 194.512 454.938 197.375 462.225L197.362 462.238ZM383.238 462.238C383.825 463.538 383.625 465.3 383.438 466.4C383.05 468.35 381.675 470.238 377.9 470.238C374.25 470.238 372.175 468.15 372.175 465.1V459.563H356.875V463.925C356.875 476.55 366.775 480.4 377.512 480.4C387.8 480.4 396.2 476.95 397.562 467.375C398.35 462.425 397.762 459.363 397.562 458C395.288 446.15 373.675 442.575 372.175 436.063C371.973 435.052 371.973 434.011 372.175 433C372.5 431.113 373.862 429.163 377.312 429.163C380.562 429.163 382.65 431.25 382.65 434.3V437.75H396.775V433.775C396.775 421.338 385.712 419.45 377.7 419.45C367.537 419.45 359.337 422.638 357.837 432.013C357.45 434.488 357.45 436.825 357.962 439.7C360.312 451.488 380.363 454.738 383.225 462.225L383.238 462.238ZM431.35 469.863C435.387 469.863 436.487 467.188 436.888 465.7C437.087 465.113 437.087 464.138 437.087 463.55V421.363H451.6V462.438C451.6 463.55 451.6 465.688 451.4 466.213C450.487 476.95 442.025 480.4 431.538 480.4C421.05 480.4 412.662 476.95 411.675 466.213C411.675 465.688 411.475 463.538 411.475 462.438V421.363H425.988V463.55C425.988 464.338 425.988 465.113 426.188 465.7C426.188 467.2 427.362 469.863 431.325 469.863H431.35ZM550.562 469.275C554.8 469.275 556.1 466.6 556.488 465.113C556.688 464.525 556.688 463.55 556.688 463.025V454.763H550.763V446.363H571.012V461.663C571.012 462.838 571.013 463.55 570.812 465.5C569.837 475.988 560.85 479.625 550.763 479.625C540.6 479.625 531.688 475.975 530.712 465.5C530.513 463.55 530.512 462.825 530.512 461.663V437.575C530.512 436.663 530.712 434.713 530.712 433.8C532.013 423.063 540.613 419.613 550.763 419.613C560.85 419.613 569.638 423.063 570.812 433.8C571.013 435.488 571.012 437.575 571.012 437.575V439.525H556.688V436.275C556.688 436.275 556.688 434.913 556.488 434.125C556.288 432.825 555.125 429.963 550.763 429.963C546.525 429.963 545.425 432.638 545.038 434.125C544.837 434.913 544.837 435.888 544.837 436.863V463.038C544.837 463.75 544.837 464.538 545.038 465.125C545.038 466.625 546.537 469.288 550.575 469.288L550.562 469.275Z" fill="#263238"/>
</g>
<path d="M874.876 490.092C872.569 495.471 869.718 500.6 866.368 505.4C861.893 511.792 858.218 516.208 855.401 518.667C851.026 522.683 846.326 524.75 841.301 524.867C837.701 524.867 833.351 523.842 828.284 521.758C823.201 519.683 818.534 518.667 814.259 518.667C809.784 518.667 804.984 519.683 799.843 521.758C794.709 523.842 790.559 524.933 787.384 525.033C782.576 525.242 777.768 523.125 772.976 518.667C769.918 516 766.093 511.417 761.501 504.933C756.584 498.025 752.543 489.983 749.376 480.842C745.984 470.95 744.284 461.383 744.284 452.117C744.284 441.508 746.576 432.35 751.168 424.683C754.641 418.662 759.606 413.637 765.584 410.092C771.48 406.556 778.21 404.652 785.084 404.575C788.918 404.575 793.943 405.758 800.168 408.092C806.393 410.425 810.393 411.608 812.134 411.608C813.451 411.608 817.876 410.217 825.409 407.458C832.518 404.9 838.518 403.842 843.434 404.258C856.768 405.333 866.776 410.583 873.434 420.05C861.518 427.275 855.626 437.383 855.743 450.358C855.843 460.467 859.518 468.875 866.718 475.55C869.901 478.596 873.615 481.034 877.676 482.742C876.793 485.3 875.859 487.742 874.876 490.092ZM844.318 369.833C844.318 377.75 841.418 385.15 835.659 391.992C828.693 400.125 820.276 404.833 811.151 404.092C811.032 403.096 810.973 402.094 810.976 401.092C810.976 393.483 814.276 385.35 820.168 378.692C823.101 375.325 826.834 372.517 831.359 370.283C835.876 368.083 840.143 366.867 844.159 366.658C844.268 367.725 844.318 368.783 844.318 369.833Z" fill="#263238"/>
<path d="M870.045 88.5995C870.045 88.5995 871.441 86.3158 871.655 85.4574C871.869 84.5994 871.763 84.1152 871.333 83.8473C870.903 83.5794 865.645 85.9395 865.645 85.9395C865.645 85.9395 866.235 81.593 863.499 82.5051C860.762 83.4172 857.058 86.0474 857.058 86.0474C857.058 86.0474 836.987 81.1284 831.049 79.8404C825.11 78.5524 819.673 78.4095 811.371 81.8438C803.072 85.2782 788.76 86.9821 783.896 90.7104C783.896 90.7104 779.316 90.5854 773.878 92.3696C768.44 94.1521 741.535 98.8744 737.243 98.7315C732.951 98.5886 729.086 101.941 712.199 93.8961C695.313 85.8507 696.886 89.4293 673.13 83.1318C649.375 76.8361 635.779 84.4198 630.056 96.871C624.332 109.322 631.638 108.14 638.785 97.2643C638.785 97.2643 648.372 81.7014 671.128 92.2911C693.881 102.881 715.92 102.166 708.478 111.468C701.037 120.77 699.177 130.357 693.166 131.503C687.155 132.648 685.009 135.08 680 134.509C674.99 133.936 674.275 137.37 673.417 140.377C672.558 143.383 671.27 148.821 671.986 150.967C672.701 153.113 671.885 162.415 674.369 165.276C676.852 168.138 677.853 166.85 677.853 166.85C677.853 166.85 678.283 172.575 682.433 170.427C682.433 170.427 689.016 174.434 686.44 166.42C686.44 166.42 691.449 169.426 691.735 168.423C692.02 167.42 690.375 164.775 689.195 164.131C688.015 163.486 687.048 160.588 684.15 160.266C684.15 160.266 684.58 153.289 684.58 151.679C684.58 150.07 686.19 150.499 687.049 150.391C687.907 150.283 690.805 148.459 690.805 148.459C690.805 148.459 713.022 150.069 720.535 142.557C728.048 135.044 740.498 133.648 740.498 133.648C740.498 133.648 757.564 137.619 764.111 133.004C764.111 133.004 789.332 138.156 810.048 124.203C810.048 124.203 818.312 130.966 820.673 131.824C823.035 132.682 825.395 137.404 822.713 139.122C820.028 140.84 817.882 145.132 818.956 145.991C818.956 145.991 817.346 149.855 820.136 150.498C820.136 150.498 822.927 154.041 825.181 150.713C825.181 150.713 828.079 150.069 829.689 146.634C831.299 143.2 832.479 145.239 832.801 142.126C832.801 142.126 835.913 135.61 834.303 130.013C834.303 130.013 837.31 129.461 838.811 131.501C840.314 133.541 841.388 131.501 842.998 133.969C844.608 136.437 848.472 139.98 849.974 139.765C851.476 139.552 853.623 141.59 854.804 139.444C855.987 137.297 859.635 137.619 858.775 134.613C858.775 134.613 860.921 131.393 857.487 130.535C854.052 129.676 859.419 124.525 849.544 124.525C849.544 124.525 847.934 124.202 846.968 122.592C846.002 120.982 836.88 114.758 834.411 114.436C834.411 114.436 841.174 105.097 849.438 107.567C857.703 110.035 859.741 111.215 862.855 111.431C865.967 111.646 868.651 118.194 873.48 112.612C873.48 112.612 876.27 111.323 876.164 110.144C876.164 110.144 877.774 108.748 877.988 107.675C878.202 106.601 875.519 103.061 875.412 101.129C875.304 99.1965 876.914 96.5715 870.045 88.5995Z" fill="#263238"/>
<path d="M523.172 128.531L564 196.547H523.172H498.422L459.438 131.562L429.906 82.3906L459.438 64.6406L478.031 53.4531L523.172 128.531Z" fill="#263238"/>
<path d="M459.437 169.797L475.437 196.547H459.437H409.906L373.516 135.985L371.922 133.344L373.516 132.407L420.109 104.36L459.437 169.797Z" fill="#263238"/>
<path d="M373.516 174.172L386.938 196.547H373.516H321.359L314 184.266L362.172 155.328L373.516 174.172Z" fill="#263238"/>
<path d="M124.972 114.326L81.8793 125.607C66.6609 129.373 53.3488 134.388 40.521 129.998C23.0839 122.467 23.3964 102.873 36.3961 82.03C13.4123 100.998 -27.946 161.653 27.99 167.778C35.1149 168.715 47.802 166.215 61.5829 160.419L124.972 134.404L250 83.28L140.503 110.248L124.972 114.326Z" fill="#263238"/>
<path fill-rule="evenodd" clip-rule="evenodd" d="M967 29V179H1117V29H967ZM1058.67 62.3333H1025.33V87.3333H1000.33V120.667H1025.33V145.667H1058.67V120.667H1083.67V87.3333H1058.67V62.3333Z" fill="#263238"/>
<defs>
<clipPath id="clip0">
<rect width="400" height="400" fill="white" transform="translate(171 250)"/>
</clipPath>
</defs>
</svg>
