<svg width="183" height="88" viewBox="0 0 183 88" fill="none" xmlns="http://www.w3.org/2000/svg">
<rect y="0.0588379" width="182.805" height="87.4286" fill="#FCFCFC"/>
<path d="M68.4592 42.1308C69.1375 41.5445 69.6709 41.064 70.0594 40.6896C70.4551 40.3081 70.7836 39.9125 71.045 39.5027C71.3064 39.0929 71.4371 38.6832 71.4371 38.2734C71.4371 37.8495 71.3347 37.5174 71.1298 37.2772C70.932 37.037 70.6176 36.9169 70.1866 36.9169C69.7698 36.9169 69.4448 37.0512 69.2117 37.3196C68.9856 37.581 68.8655 37.9343 68.8513 38.3794H67.6856C67.7068 37.574 67.947 36.9593 68.4063 36.5354C68.8725 36.1045 69.4625 35.889 70.176 35.889C70.9461 35.889 71.5466 36.1009 71.9776 36.5248C72.4156 36.9487 72.6346 37.5139 72.6346 38.2204C72.6346 38.7291 72.5039 39.2201 72.2425 39.6934C71.9882 40.1597 71.6809 40.5801 71.3205 40.9545C70.9673 41.3219 70.5151 41.7493 69.9641 42.2368L69.4872 42.6607H72.8466V43.6675H67.6962V42.7879L68.4592 42.1308ZM73.7595 42.1626V41.2513L77.3202 36.1433H78.7827V41.1135H79.7682V42.1626H78.7827V43.7734H77.5958V42.1626H73.7595ZM77.6488 37.3726L75.1478 41.1135H77.6488V37.3726ZM84.8493 33.7695L81.9668 45.628H80.7799L83.6518 33.7695H84.8493ZM91.1089 36.9805L88.1628 43.7734H86.9441L89.922 37.1077H86.0009V36.0797H91.1089V36.9805ZM98.414 43.8476C97.7287 43.8476 97.0964 43.6887 96.5171 43.3707C95.9448 43.0457 95.4892 42.5971 95.15 42.0249C94.818 41.4455 94.652 40.7956 94.652 40.0749C94.652 39.3543 94.818 38.7079 95.15 38.1356C95.4892 37.5634 95.9448 37.1183 96.5171 36.8003C97.0964 36.4754 97.7287 36.3129 98.414 36.3129C99.1064 36.3129 99.7387 36.4754 100.311 36.8003C100.89 37.1183 101.346 37.5634 101.678 38.1356C102.01 38.7079 102.176 39.3543 102.176 40.0749C102.176 40.7956 102.01 41.4455 101.678 42.0249C101.346 42.5971 100.89 43.0457 100.311 43.3707C99.7387 43.6887 99.1064 43.8476 98.414 43.8476ZM98.414 42.7985C98.9015 42.7985 99.336 42.689 99.7175 42.47C100.099 42.2439 100.396 41.926 100.608 41.5162C100.827 41.0994 100.936 40.6189 100.936 40.0749C100.936 39.5309 100.827 39.0541 100.608 38.6443C100.396 38.2345 100.099 37.9201 99.7175 37.7011C99.336 37.4821 98.9015 37.3726 98.414 37.3726C97.9266 37.3726 97.4921 37.4821 97.1106 37.7011C96.7291 37.9201 96.4288 38.2345 96.2098 38.6443C95.9978 39.0541 95.8919 39.5309 95.8919 40.0749C95.8919 40.6189 95.9978 41.0994 96.2098 41.5162C96.4288 41.926 96.7291 42.2439 97.1106 42.47C97.4921 42.689 97.9266 42.7985 98.414 42.7985ZM106.311 37.8389C106.77 37.8389 107.18 37.9343 107.54 38.125C107.908 38.3158 108.194 38.5984 108.399 38.9728C108.604 39.3473 108.706 39.7994 108.706 40.3293V43.7734H107.509V40.5094C107.509 39.9866 107.378 39.5875 107.116 39.3119C106.855 39.0293 106.498 38.888 106.046 38.888C105.594 38.888 105.234 39.0293 104.965 39.3119C104.704 39.5875 104.573 39.9866 104.573 40.5094V43.7734H103.365V37.9343H104.573V38.6019C104.771 38.3617 105.022 38.1745 105.325 38.0402C105.636 37.906 105.965 37.8389 106.311 37.8389ZM111.455 35.9314V43.7734H110.247V35.9314H111.455ZM113.656 37.1607C113.437 37.1607 113.253 37.0865 113.105 36.9381C112.956 36.7897 112.882 36.6061 112.882 36.387C112.882 36.168 112.956 35.9843 113.105 35.836C113.253 35.6876 113.437 35.6134 113.656 35.6134C113.868 35.6134 114.048 35.6876 114.196 35.836C114.345 35.9843 114.419 36.168 114.419 36.387C114.419 36.6061 114.345 36.7897 114.196 36.9381C114.048 37.0865 113.868 37.1607 113.656 37.1607ZM114.249 37.9343V43.7734H113.041V37.9343H114.249ZM118.782 37.8389C119.241 37.8389 119.651 37.9343 120.011 38.125C120.378 38.3158 120.664 38.5984 120.869 38.9728C121.074 39.3473 121.177 39.7994 121.177 40.3293V43.7734H119.979V40.5094C119.979 39.9866 119.848 39.5875 119.587 39.3119C119.326 39.0293 118.969 38.888 118.517 38.888C118.064 38.888 117.704 39.0293 117.436 39.3119C117.174 39.5875 117.044 39.9866 117.044 40.5094V43.7734H115.836V37.9343H117.044V38.6019C117.241 38.3617 117.492 38.1745 117.796 38.0402C118.107 37.906 118.435 37.8389 118.782 37.8389ZM128.069 40.7108C128.069 40.9298 128.055 41.1276 128.027 41.3042H123.565C123.601 41.7705 123.774 42.145 124.085 42.4276C124.396 42.7102 124.777 42.8515 125.229 42.8515C125.879 42.8515 126.338 42.5795 126.607 42.0355H127.91C127.734 42.5724 127.412 43.014 126.946 43.3601C126.487 43.6993 125.914 43.8688 125.229 43.8688C124.671 43.8688 124.169 43.7452 123.724 43.4979C123.286 43.2436 122.94 42.8903 122.686 42.4382C122.439 41.9789 122.315 41.4491 122.315 40.8486C122.315 40.248 122.435 39.7217 122.675 39.2695C122.922 38.8103 123.265 38.4571 123.703 38.2098C124.148 37.9625 124.657 37.8389 125.229 37.8389C125.78 37.8389 126.271 37.959 126.702 38.1992C127.133 38.4394 127.469 38.7785 127.709 39.2166C127.949 39.6475 128.069 40.1456 128.069 40.7108ZM126.808 40.3293C126.801 39.8842 126.642 39.5274 126.331 39.2589C126.02 38.9905 125.635 38.8562 125.176 38.8562C124.759 38.8562 124.403 38.9905 124.106 39.2589C123.809 39.5203 123.633 39.8771 123.576 40.3293H126.808ZM134.438 43.8476C133.943 43.8476 133.498 43.7628 133.103 43.5933C132.707 43.4167 132.396 43.1694 132.17 42.8515C131.944 42.5335 131.831 42.1626 131.831 41.7387H133.124C133.152 42.0567 133.276 42.3181 133.495 42.5229C133.721 42.7278 134.035 42.8303 134.438 42.8303C134.855 42.8303 135.18 42.7314 135.413 42.5335C135.646 42.3287 135.763 42.0673 135.763 41.7493C135.763 41.5021 135.688 41.3007 135.54 41.1453C135.399 40.9899 135.219 40.8697 134.999 40.785C134.788 40.7002 134.491 40.6083 134.109 40.5094C133.629 40.3823 133.237 40.2551 132.933 40.1279C132.636 39.9937 132.382 39.7888 132.17 39.5133C131.958 39.2377 131.852 38.8704 131.852 38.4112C131.852 37.9873 131.958 37.6163 132.17 37.2984C132.382 36.9805 132.679 36.7368 133.06 36.5672C133.442 36.3976 133.883 36.3129 134.385 36.3129C135.098 36.3129 135.681 36.493 136.133 36.8533C136.593 37.2066 136.847 37.6941 136.896 38.3158H135.561C135.54 38.0473 135.413 37.8177 135.18 37.6269C134.947 37.4362 134.639 37.3408 134.258 37.3408C133.911 37.3408 133.629 37.4291 133.41 37.6057C133.191 37.7824 133.081 38.0367 133.081 38.3688C133.081 38.5948 133.148 38.7821 133.283 38.9304C133.424 39.0717 133.601 39.1848 133.813 39.2695C134.025 39.3543 134.314 39.4462 134.682 39.5451C135.169 39.6793 135.565 39.8135 135.868 39.9478C136.179 40.082 136.441 40.2904 136.653 40.573C136.872 40.8486 136.981 41.2195 136.981 41.6857C136.981 42.0602 136.879 42.4134 136.674 42.7455C136.476 43.0775 136.183 43.346 135.794 43.5509C135.413 43.7487 134.961 43.8476 134.438 43.8476ZM143.695 37.9343V43.7734H142.487V43.0846C142.296 43.3248 142.045 43.5156 141.734 43.6569C141.431 43.7911 141.106 43.8582 140.759 43.8582C140.3 43.8582 139.887 43.7628 139.519 43.5721C139.159 43.3813 138.873 43.0987 138.661 42.7243C138.456 42.3499 138.354 41.8977 138.354 41.3678V37.9343H139.551V41.1877C139.551 41.7105 139.682 42.1132 139.943 42.3958C140.205 42.6713 140.562 42.8091 141.014 42.8091C141.466 42.8091 141.823 42.6713 142.084 42.3958C142.352 42.1132 142.487 41.7105 142.487 41.1877V37.9343H143.695ZM146.497 38.7927C146.702 38.5242 146.981 38.2981 147.334 38.1144C147.687 37.9307 148.087 37.8389 148.532 37.8389C149.04 37.8389 149.503 37.9661 149.92 38.2204C150.344 38.4677 150.676 38.8174 150.916 39.2695C151.156 39.7217 151.276 40.241 151.276 40.8274C151.276 41.4137 151.156 41.9401 150.916 42.4064C150.676 42.8656 150.344 43.2259 149.92 43.4873C149.503 43.7416 149.04 43.8688 148.532 43.8688C148.087 43.8688 147.691 43.7805 147.345 43.6039C146.999 43.4202 146.716 43.1941 146.497 42.9256V46.55H145.289V37.9343H146.497V38.7927ZM150.047 40.8274C150.047 40.4247 149.962 40.0785 149.793 39.7888C149.63 39.4921 149.411 39.2695 149.136 39.1212C148.867 38.9657 148.578 38.888 148.267 38.888C147.963 38.888 147.673 38.9657 147.398 39.1212C147.129 39.2766 146.91 39.5027 146.741 39.7994C146.578 40.0961 146.497 40.4459 146.497 40.8486C146.497 41.2513 146.578 41.6045 146.741 41.9083C146.91 42.205 147.129 42.4311 147.398 42.5865C147.673 42.742 147.963 42.8197 148.267 42.8197C148.578 42.8197 148.867 42.742 149.136 42.5865C149.411 42.424 149.63 42.1909 149.793 41.8871C149.962 41.5833 150.047 41.2301 150.047 40.8274ZM153.679 38.7927C153.884 38.5242 154.163 38.2981 154.516 38.1144C154.87 37.9307 155.269 37.8389 155.714 37.8389C156.223 37.8389 156.685 37.9661 157.102 38.2204C157.526 38.4677 157.858 38.8174 158.098 39.2695C158.338 39.7217 158.459 40.241 158.459 40.8274C158.459 41.4137 158.338 41.9401 158.098 42.4064C157.858 42.8656 157.526 43.2259 157.102 43.4873C156.685 43.7416 156.223 43.8688 155.714 43.8688C155.269 43.8688 154.873 43.7805 154.527 43.6039C154.181 43.4202 153.898 43.1941 153.679 42.9256V46.55H152.471V37.9343H153.679V38.7927ZM157.229 40.8274C157.229 40.4247 157.145 40.0785 156.975 39.7888C156.812 39.4921 156.593 39.2695 156.318 39.1212C156.049 38.9657 155.76 38.888 155.449 38.888C155.145 38.888 154.855 38.9657 154.58 39.1212C154.311 39.2766 154.092 39.5027 153.923 39.7994C153.76 40.0961 153.679 40.4459 153.679 40.8486C153.679 41.2513 153.76 41.6045 153.923 41.9083C154.092 42.205 154.311 42.4311 154.58 42.5865C154.855 42.742 155.145 42.8197 155.449 42.8197C155.76 42.8197 156.049 42.742 156.318 42.5865C156.593 42.424 156.812 42.1909 156.975 41.8871C157.145 41.5833 157.229 41.2301 157.229 40.8274ZM162.186 43.8688C161.635 43.8688 161.137 43.7452 160.692 43.4979C160.247 43.2436 159.897 42.8903 159.643 42.4382C159.388 41.9789 159.261 41.4491 159.261 40.8486C159.261 40.2551 159.392 39.7288 159.653 39.2695C159.915 38.8103 160.271 38.4571 160.724 38.2098C161.176 37.9625 161.681 37.8389 162.239 37.8389C162.797 37.8389 163.302 37.9625 163.754 38.2098C164.207 38.4571 164.563 38.8103 164.825 39.2695C165.086 39.7288 165.217 40.2551 165.217 40.8486C165.217 41.442 165.083 41.9683 164.814 42.4276C164.546 42.8868 164.178 43.2436 163.712 43.4979C163.253 43.7452 162.744 43.8688 162.186 43.8688ZM162.186 42.8197C162.497 42.8197 162.787 42.7455 163.055 42.5971C163.331 42.4488 163.553 42.2262 163.723 41.9295C163.892 41.6328 163.977 41.2725 163.977 40.8486C163.977 40.4247 163.896 40.0679 163.733 39.7782C163.571 39.4815 163.355 39.2589 163.087 39.1106C162.818 38.9622 162.529 38.888 162.218 38.888C161.907 38.888 161.617 38.9622 161.349 39.1106C161.087 39.2589 160.879 39.4815 160.724 39.7782C160.568 40.0679 160.49 40.4247 160.49 40.8486C160.49 41.4773 160.649 41.9648 160.967 42.311C161.292 42.6501 161.699 42.8197 162.186 42.8197ZM167.619 38.7821C167.796 38.4853 168.029 38.2557 168.319 38.0932C168.615 37.9237 168.965 37.8389 169.368 37.8389V39.0894H169.061C168.587 39.0894 168.227 39.2095 167.98 39.4497C167.739 39.6899 167.619 40.1067 167.619 40.7002V43.7734H166.411V37.9343H167.619V38.7821ZM171.888 38.9198V42.152C171.888 42.371 171.937 42.53 172.036 42.6289C172.142 42.7208 172.319 42.7667 172.566 42.7667H173.308V43.7734H172.354C171.81 43.7734 171.393 43.6463 171.104 43.3919C170.814 43.1376 170.669 42.7243 170.669 42.152V38.9198H169.98V37.9343H170.669V36.4824H171.888V37.9343H173.308V38.9198H171.888Z" fill="#263238"/>
<path d="M67.5355 55.4705C67.5355 54.87 67.6709 54.3313 67.9417 53.8544C68.2126 53.3717 68.5805 52.9949 69.0456 52.724C69.5166 52.4532 70.0377 52.3178 70.6087 52.3178C71.2799 52.3178 71.8657 52.4797 72.3662 52.8035C72.8666 53.1273 73.2316 53.5866 73.4612 54.1812H72.4986C72.3279 53.8103 72.0806 53.5247 71.7568 53.3246C71.4389 53.1244 71.0562 53.0243 70.6087 53.0243C70.179 53.0243 69.7933 53.1244 69.4519 53.3246C69.1104 53.5247 68.8425 53.8103 68.6482 54.1812C68.4539 54.5462 68.3568 54.976 68.3568 55.4705C68.3568 55.9592 68.4539 56.389 68.6482 56.7599C68.8425 57.1249 69.1104 57.4075 69.4519 57.6077C69.7933 57.8079 70.179 57.9079 70.6087 57.9079C71.0562 57.9079 71.4389 57.8108 71.7568 57.6165C72.0806 57.4163 72.3279 57.1308 72.4986 56.7599H73.4612C73.2316 57.3486 72.8666 57.8049 72.3662 58.1287C71.8657 58.4466 71.2799 58.6056 70.6087 58.6056C70.0377 58.6056 69.5166 58.4731 69.0456 58.2082C68.5805 57.9374 68.2126 57.5635 67.9417 57.0866C67.6709 56.6098 67.5355 56.0711 67.5355 55.4705ZM78.9494 53.7131V58.5526H78.1458V57.8373C77.9927 58.0846 77.7778 58.2788 77.5011 58.4201C77.2303 58.5556 76.93 58.6233 76.6004 58.6233C76.2236 58.6233 75.885 58.5467 75.5848 58.3937C75.2845 58.2347 75.0461 57.9992 74.8694 57.6872C74.6987 57.3751 74.6133 56.9954 74.6133 56.5479V53.7131H75.4081V56.442C75.4081 56.9188 75.5288 57.2868 75.7702 57.5459C76.0116 57.799 76.3413 57.9256 76.7593 57.9256C77.1891 57.9256 77.5276 57.7931 77.7749 57.5282C78.0222 57.2633 78.1458 56.8776 78.1458 56.3713V53.7131H78.9494ZM82.0196 58.6321C81.6487 58.6321 81.316 58.5703 81.0217 58.4466C80.7273 58.3171 80.4947 58.1405 80.324 57.9168C80.1533 57.6872 80.0591 57.4252 80.0414 57.1308H80.8715C80.8951 57.3722 81.0069 57.5694 81.2071 57.7225C81.4132 57.8756 81.6811 57.9521 82.0108 57.9521C82.3169 57.9521 82.5583 57.8844 82.7349 57.749C82.9115 57.6136 82.9998 57.4428 82.9998 57.2368C82.9998 57.0248 82.9056 56.8688 82.7172 56.7687C82.5288 56.6627 82.2374 56.5597 81.843 56.4596C81.4838 56.3654 81.1895 56.2712 80.9598 56.177C80.7361 56.0769 80.5418 55.9327 80.377 55.7443C80.218 55.55 80.1385 55.2969 80.1385 54.9848C80.1385 54.7375 80.2121 54.5109 80.3593 54.3048C80.5065 54.0988 80.7155 53.9369 80.9863 53.8191C81.2572 53.6955 81.5662 53.6337 81.9136 53.6337C82.4494 53.6337 82.8821 53.7691 83.2118 54.0399C83.5415 54.3107 83.7181 54.6816 83.7417 55.1526H82.938C82.9204 54.8995 82.8173 54.6963 82.6289 54.5433C82.4464 54.3902 82.1991 54.3137 81.8871 54.3137C81.5986 54.3137 81.369 54.3755 81.1983 54.4991C81.0275 54.6227 80.9422 54.7846 80.9422 54.9848C80.9422 55.1438 80.9922 55.2762 81.0923 55.3822C81.1983 55.4823 81.3278 55.5647 81.4809 55.6295C81.6398 55.6884 81.8577 55.7561 82.1344 55.8326C82.4817 55.9268 82.7643 56.021 82.9822 56.1152C83.2 56.2035 83.3855 56.3389 83.5385 56.5214C83.6975 56.704 83.7799 56.9424 83.7858 57.2368C83.7858 57.5017 83.7122 57.7401 83.565 57.9521C83.4178 58.164 83.2088 58.3318 82.938 58.4555C82.6731 58.5732 82.3669 58.6321 82.0196 58.6321ZM85.9005 54.3755V57.2279C85.9005 57.4634 85.9506 57.6312 86.0507 57.7313C86.1508 57.8255 86.3244 57.8726 86.5717 57.8726H87.1634V58.5526H86.4392C85.9918 58.5526 85.6562 58.4496 85.4325 58.2435C85.2088 58.0375 85.0969 57.6989 85.0969 57.2279V54.3755H84.4699V53.7131H85.0969V52.4944H85.9005V53.7131H87.1634V54.3755H85.9005ZM90.2477 58.6321C89.7944 58.6321 89.3823 58.5291 89.0114 58.323C88.6464 58.1169 88.3579 57.8255 88.1459 57.4487C87.9399 57.066 87.8368 56.6245 87.8368 56.124C87.8368 55.6295 87.9428 55.1938 88.1548 54.817C88.3726 54.4343 88.667 54.1429 89.0379 53.9427C89.4088 53.7367 89.8238 53.6337 90.2831 53.6337C90.7423 53.6337 91.1574 53.7367 91.5283 53.9427C91.8992 54.1429 92.1906 54.4314 92.4025 54.8082C92.6204 55.185 92.7293 55.6236 92.7293 56.124C92.7293 56.6245 92.6174 57.066 92.3937 57.4487C92.1759 57.8255 91.8786 58.1169 91.5018 58.323C91.125 58.5291 90.707 58.6321 90.2477 58.6321ZM90.2477 57.9256C90.5362 57.9256 90.8071 57.8579 91.0602 57.7225C91.3134 57.5871 91.5165 57.384 91.6696 57.1131C91.8285 56.8423 91.908 56.5126 91.908 56.124C91.908 55.7355 91.8315 55.4058 91.6784 55.135C91.5253 54.8641 91.3251 54.664 91.0779 54.5344C90.8306 54.399 90.5627 54.3313 90.2742 54.3313C89.9799 54.3313 89.709 54.399 89.4618 54.5344C89.2204 54.664 89.0261 54.8641 88.8789 55.135C88.7317 55.4058 88.6581 55.7355 88.6581 56.124C88.6581 56.5185 88.7288 56.8511 88.8701 57.122C89.0173 57.3928 89.2116 57.5959 89.4529 57.7313C89.6943 57.8608 89.9593 57.9256 90.2477 57.9256ZM99.6057 53.6248C99.9825 53.6248 100.318 53.7043 100.612 53.8633C100.907 54.0163 101.139 54.2489 101.31 54.5609C101.481 54.873 101.566 55.2527 101.566 55.7001V58.5526H100.771V55.815C100.771 55.3322 100.651 54.9642 100.409 54.7111C100.174 54.452 99.853 54.3225 99.4467 54.3225C99.0287 54.3225 98.6961 54.4579 98.4488 54.7287C98.2015 54.9937 98.0779 55.3793 98.0779 55.8856V58.5526H97.2831V55.815C97.2831 55.3322 97.1624 54.9642 96.921 54.7111C96.6855 54.452 96.3646 54.3225 95.9584 54.3225C95.5404 54.3225 95.2078 54.4579 94.9605 54.7287C94.7132 54.9937 94.5896 55.3793 94.5896 55.8856V58.5526H93.7859V53.7131H94.5896V54.4108C94.7485 54.1576 94.9605 53.9633 95.2254 53.8279C95.4962 53.6925 95.7936 53.6248 96.1174 53.6248C96.5236 53.6248 96.8827 53.7161 97.1948 53.8986C97.5068 54.0811 97.7394 54.349 97.8924 54.7022C98.0278 54.3608 98.2516 54.0958 98.5636 53.9074C98.8756 53.719 99.223 53.6248 99.6057 53.6248ZM107.3 55.9474C107.3 56.1005 107.291 56.2624 107.274 56.4331H103.405C103.435 56.91 103.597 57.2839 103.891 57.5547C104.191 57.8196 104.554 57.9521 104.977 57.9521C105.325 57.9521 105.613 57.8726 105.843 57.7137C106.078 57.5488 106.243 57.331 106.337 57.0601H107.203C107.073 57.5253 106.814 57.905 106.426 58.1994C106.037 58.4879 105.554 58.6321 104.977 58.6321C104.518 58.6321 104.106 58.5291 103.741 58.323C103.382 58.1169 103.099 57.8255 102.893 57.4487C102.687 57.066 102.584 56.6245 102.584 56.124C102.584 55.6236 102.684 55.185 102.884 54.8082C103.085 54.4314 103.364 54.1429 103.723 53.9427C104.088 53.7367 104.506 53.6337 104.977 53.6337C105.437 53.6337 105.843 53.7337 106.196 53.9339C106.549 54.1341 106.82 54.4108 107.009 54.764C107.203 55.1114 107.3 55.5059 107.3 55.9474ZM106.47 55.7796C106.47 55.4735 106.402 55.2115 106.267 54.9937C106.131 54.7699 105.946 54.6021 105.71 54.4903C105.481 54.3725 105.225 54.3137 104.942 54.3137C104.536 54.3137 104.189 54.4432 103.9 54.7022C103.617 54.9613 103.456 55.3204 103.414 55.7796H106.47ZM109.164 54.4991C109.306 54.2224 109.506 54.0075 109.765 53.8544C110.03 53.7014 110.351 53.6248 110.728 53.6248V54.455H110.516C109.615 54.455 109.164 54.9436 109.164 55.9209V58.5526H108.361V53.7131H109.164V54.4991ZM115.961 58.6144C115.555 58.6144 115.19 58.5438 114.866 58.4025C114.548 58.2553 114.298 58.0551 114.116 57.802C113.933 57.5429 113.839 57.2456 113.833 56.91H114.69C114.719 57.1985 114.837 57.4428 115.043 57.643C115.255 57.8373 115.561 57.9344 115.961 57.9344C116.344 57.9344 116.644 57.8402 116.862 57.6518C117.086 57.4575 117.198 57.2103 117.198 56.91C117.198 56.6745 117.133 56.4832 117.003 56.336C116.874 56.1888 116.712 56.0769 116.518 56.0004C116.323 55.9239 116.061 55.8414 115.732 55.7531C115.326 55.6472 114.999 55.5412 114.751 55.4352C114.51 55.3292 114.301 55.1644 114.124 54.9407C113.954 54.7111 113.868 54.4049 113.868 54.0222C113.868 53.6866 113.954 53.3893 114.124 53.1303C114.295 52.8712 114.534 52.6711 114.84 52.5298C115.152 52.3885 115.508 52.3178 115.908 52.3178C116.485 52.3178 116.956 52.4621 117.321 52.7505C117.692 53.039 117.901 53.4217 117.948 53.8986H117.065C117.036 53.6631 116.912 53.457 116.694 53.2804C116.476 53.0979 116.188 53.0066 115.829 53.0066C115.493 53.0066 115.22 53.095 115.008 53.2716C114.796 53.4423 114.69 53.6837 114.69 53.9957C114.69 54.2195 114.751 54.402 114.875 54.5433C115.005 54.6846 115.161 54.7935 115.343 54.87C115.532 54.9407 115.794 55.0231 116.129 55.1173C116.535 55.2291 116.862 55.341 117.109 55.4529C117.357 55.5588 117.569 55.7266 117.745 55.9562C117.922 56.18 118.01 56.4861 118.01 56.8747C118.01 57.175 117.931 57.4575 117.772 57.7225C117.613 57.9874 117.377 58.2023 117.065 58.3672C116.753 58.532 116.385 58.6144 115.961 58.6144ZM123.485 53.7131V58.5526H122.681V57.8373C122.528 58.0846 122.313 58.2788 122.036 58.4201C121.766 58.5556 121.465 58.6233 121.136 58.6233C120.759 58.6233 120.42 58.5467 120.12 58.3937C119.82 58.2347 119.581 57.9992 119.405 57.6872C119.234 57.3751 119.149 56.9954 119.149 56.5479V53.7131H119.943V56.442C119.943 56.9188 120.064 57.2868 120.306 57.5459C120.547 57.799 120.877 57.9256 121.295 57.9256C121.724 57.9256 122.063 57.7931 122.31 57.5282C122.557 57.2633 122.681 56.8776 122.681 56.3713V53.7131H123.485ZM125.645 54.6051C125.804 54.3284 126.04 54.0988 126.352 53.9162C126.67 53.7279 127.038 53.6337 127.456 53.6337C127.885 53.6337 128.274 53.7367 128.621 53.9427C128.975 54.1488 129.251 54.4402 129.452 54.817C129.652 55.1879 129.752 55.6207 129.752 56.1152C129.752 56.6039 129.652 57.0395 129.452 57.4222C129.251 57.8049 128.975 58.1022 128.621 58.3142C128.274 58.5261 127.885 58.6321 127.456 58.6321C127.044 58.6321 126.679 58.5408 126.361 58.3583C126.049 58.1699 125.81 57.9374 125.645 57.6607V60.8487H124.842V53.7131H125.645V54.6051ZM128.93 56.1152C128.93 55.7502 128.857 55.4323 128.71 55.1614C128.563 54.8906 128.362 54.6846 128.109 54.5433C127.862 54.402 127.588 54.3313 127.288 54.3313C126.993 54.3313 126.72 54.4049 126.467 54.5521C126.219 54.6934 126.019 54.9024 125.866 55.1791C125.719 55.4499 125.645 55.7649 125.645 56.124C125.645 56.4891 125.719 56.8099 125.866 57.0866C126.019 57.3575 126.219 57.5665 126.467 57.7137C126.72 57.855 126.993 57.9256 127.288 57.9256C127.588 57.9256 127.862 57.855 128.109 57.7137C128.362 57.5665 128.563 57.3575 128.71 57.0866C128.857 56.8099 128.93 56.4861 128.93 56.1152ZM131.613 54.6051C131.772 54.3284 132.008 54.0988 132.32 53.9162C132.638 53.7279 133.006 53.6337 133.424 53.6337C133.853 53.6337 134.242 53.7367 134.589 53.9427C134.943 54.1488 135.219 54.4402 135.419 54.817C135.62 55.1879 135.72 55.6207 135.72 56.1152C135.72 56.6039 135.62 57.0395 135.419 57.4222C135.219 57.8049 134.943 58.1022 134.589 58.3142C134.242 58.5261 133.853 58.6321 133.424 58.6321C133.011 58.6321 132.646 58.5408 132.329 58.3583C132.016 58.1699 131.778 57.9374 131.613 57.6607V60.8487H130.81V53.7131H131.613V54.6051ZM134.898 56.1152C134.898 55.7502 134.825 55.4323 134.678 55.1614C134.53 54.8906 134.33 54.6846 134.077 54.5433C133.83 54.402 133.556 54.3313 133.256 54.3313C132.961 54.3313 132.688 54.4049 132.435 54.5521C132.187 54.6934 131.987 54.9024 131.834 55.1791C131.687 55.4499 131.613 55.7649 131.613 56.124C131.613 56.4891 131.687 56.8099 131.834 57.0866C131.987 57.3575 132.187 57.5665 132.435 57.7137C132.688 57.855 132.961 57.9256 133.256 57.9256C133.556 57.9256 133.83 57.855 134.077 57.7137C134.33 57.5665 134.53 57.3575 134.678 57.0866C134.825 56.8099 134.898 56.4861 134.898 56.1152ZM138.888 58.6321C138.435 58.6321 138.023 58.5291 137.652 58.323C137.287 58.1169 136.998 57.8255 136.786 57.4487C136.58 57.066 136.477 56.6245 136.477 56.124C136.477 55.6295 136.583 55.1938 136.795 54.817C137.013 54.4343 137.307 54.1429 137.678 53.9427C138.049 53.7367 138.464 53.6337 138.923 53.6337C139.383 53.6337 139.798 53.7367 140.169 53.9427C140.54 54.1429 140.831 54.4314 141.043 54.8082C141.261 55.185 141.37 55.6236 141.37 56.124C141.37 56.6245 141.258 57.066 141.034 57.4487C140.816 57.8255 140.519 58.1169 140.142 58.323C139.765 58.5291 139.347 58.6321 138.888 58.6321ZM138.888 57.9256C139.177 57.9256 139.447 57.8579 139.701 57.7225C139.954 57.5871 140.157 57.384 140.31 57.1131C140.469 56.8423 140.548 56.5126 140.548 56.124C140.548 55.7355 140.472 55.4058 140.319 55.135C140.166 54.8641 139.966 54.664 139.718 54.5344C139.471 54.399 139.203 54.3313 138.915 54.3313C138.62 54.3313 138.349 54.399 138.102 54.5344C137.861 54.664 137.667 54.8641 137.519 55.135C137.372 55.4058 137.299 55.7355 137.299 56.124C137.299 56.5185 137.369 56.8511 137.51 57.122C137.658 57.3928 137.852 57.5959 138.093 57.7313C138.335 57.8608 138.6 57.9256 138.888 57.9256ZM143.23 54.4991C143.371 54.2224 143.571 54.0075 143.831 53.8544C144.095 53.7014 144.416 53.6248 144.793 53.6248V54.455H144.581C143.68 54.455 143.23 54.9436 143.23 55.9209V58.5526H142.426V53.7131H143.23V54.4991ZM146.701 54.3755V57.2279C146.701 57.4634 146.751 57.6312 146.851 57.7313C146.951 57.8255 147.125 57.8726 147.372 57.8726H147.964V58.5526H147.24C146.792 58.5526 146.457 58.4496 146.233 58.2435C146.009 58.0375 145.897 57.6989 145.897 57.2279V54.3755H145.27V53.7131H145.897V52.4944H146.701V53.7131H147.964V54.3755H146.701Z" fill="#263238"/>
<path d="M53.1133 53.0911L51.1661 48.7093C51.1727 48.7027 51.1796 48.6967 51.1862 48.6901C52.0214 47.8561 52.4813 46.7463 52.4813 45.5653V41.0465C52.4813 40.0254 52.1218 38.7321 50.9711 37.7218C50.8037 27.954 42.8071 20.0591 33.0001 20.0591C23.1931 20.0591 15.1965 27.954 15.029 37.7217C13.8789 38.732 13.5188 40.0249 13.5188 41.0465V45.5653C13.5188 46.7463 13.9787 47.8561 14.8127 48.6888C14.8196 48.6959 14.827 48.7022 14.834 48.7092L12.8868 53.091C11.8608 55.3996 12.07 58.0416 13.4462 60.1583C14.8226 62.276 17.152 63.5403 19.6772 63.5403H20.7255L15.9376 65.3358C15.2103 65.6086 14.8418 66.4191 15.1146 67.1463C15.3874 67.8736 16.1982 68.2418 16.9251 67.9693L28.1272 63.7684L32.0057 67.6469C32.5548 68.196 33.4453 68.196 33.9945 67.6469L37.873 63.7684L49.0751 67.9693C49.802 68.2418 50.6127 67.8736 50.8856 67.1463C51.1583 66.4191 50.7899 65.6086 50.0627 65.3358L45.2747 63.5403H46.3229C48.8481 63.5403 51.1775 62.2761 52.5538 60.1586C53.9301 58.0416 54.1393 55.3996 53.1133 53.0911ZM42.1376 47.8087L38.1479 45.8139C36.5359 45.0077 34.7683 44.6048 33 44.6048C31.2321 44.6048 29.4638 45.0079 27.8523 45.8139L23.8624 47.8087V38.9613L28.016 37.1811C30.16 36.2626 31.8852 34.6908 33 32.7562C34.1147 34.6908 35.8398 36.2626 37.9836 37.181L42.1375 38.9613V47.8087H42.1376ZM49.6688 41.0465V45.5653C49.6688 45.9943 49.5018 46.3974 49.1973 46.7014C48.8946 47.0045 48.4916 47.1716 48.0626 47.1716H44.9501V39.4403H48.0626C48.938 39.4403 49.6688 40.1482 49.6688 41.0465ZM48.1625 49.9807V51.5903C48.1625 52.476 47.442 53.1966 46.5563 53.1966H44.3813C44.7513 52.2221 44.9501 51.1713 44.9501 50.0841V49.9841H48.0626C48.0961 49.9841 48.1292 49.9815 48.1625 49.9807ZM33.0001 22.8716C40.8868 22.8716 47.3853 28.9246 48.0968 36.6286C48.0854 36.6286 48.074 36.6278 48.0625 36.6278H43.8324L39.0915 34.5958C36.2454 33.3766 34.4063 30.5875 34.4063 27.4904C34.4063 26.7137 33.7767 26.0841 33.0001 26.0841C32.2234 26.0841 31.5938 26.7137 31.5938 27.4904C31.5938 30.5875 29.7547 33.3766 26.9083 34.596L22.1676 36.6279H17.9376C17.9262 36.6279 17.9147 36.6286 17.9033 36.6287C18.6148 28.9246 25.1133 22.8716 33.0001 22.8716ZM16.3313 41.0465C16.3313 40.1692 17.0407 39.4403 17.9375 39.4403H21.05V47.1716H17.9375C17.5084 47.1716 17.1055 47.0046 16.8014 46.7002C16.4982 46.3975 16.3312 45.9944 16.3312 45.5654V41.0465H16.3313ZM27.0751 60.7278H19.6772C18.1078 60.7278 16.6599 59.9419 15.8042 58.6254C14.9491 57.3102 14.8192 55.6682 15.457 54.2331L17.3622 49.9459C17.5516 49.9704 17.7435 49.9841 17.9376 49.9841H21.0501V50.084C21.0501 53.4074 22.8965 56.3951 25.8688 57.8813L27.0751 58.4844V60.7278ZM36.1126 61.5512L33.0001 64.6637L29.8876 61.5512V59.6558C30.9034 59.9393 31.9516 60.0822 33.0002 60.0822C34.0485 60.0822 35.0968 59.9392 36.1127 59.6558V61.5512H36.1126ZM36.8897 56.3576C34.4542 57.5758 31.5459 57.5759 29.1102 56.3575L27.1265 55.3658C25.3672 54.4861 24.1903 52.8299 23.9214 50.9238L29.1105 48.3294C31.546 47.1112 34.4543 47.1112 36.89 48.3294L42.0789 50.9238C41.9635 51.7415 41.68 52.5125 41.2562 53.1966H39.0252C38.2486 53.1966 37.6189 53.8262 37.6189 54.6029C37.6189 55.0575 37.8355 55.4604 38.1701 55.7175L36.8897 56.3576ZM50.1958 58.6256C49.3402 59.9419 47.8923 60.7278 46.3229 60.7278H38.9251V58.4845L40.1314 57.8813C41.0917 57.4011 41.9337 56.7635 42.6347 56.0091H46.5563C48.1761 56.0091 49.5943 55.1325 50.3636 53.8292L50.5431 54.2333C51.1809 55.6682 51.0511 57.3102 50.1958 58.6256Z" fill="#263238"/>
<path d="M28.4812 42.4526C29.2579 42.4526 29.8875 41.823 29.8875 41.0464C29.8875 40.2697 29.2579 39.6401 28.4812 39.6401C27.7046 39.6401 27.075 40.2697 27.075 41.0464C27.075 41.823 27.7046 42.4526 28.4812 42.4526Z" fill="#263238"/>
<path d="M37.5188 42.4526C38.2954 42.4526 38.925 41.823 38.925 41.0464C38.925 40.2697 38.2954 39.6401 37.5188 39.6401C36.7421 39.6401 36.1125 40.2697 36.1125 41.0464C36.1125 41.823 36.7421 42.4526 37.5188 42.4526Z" fill="#263238"/>
</svg>
