<svg width="522" height="748" viewBox="0 0 522 748" fill="none" xmlns="http://www.w3.org/2000/svg">
<path fill-rule="evenodd" clip-rule="evenodd" d="M346.683 111.677C356.875 99.7139 363.773 85.0525 362.62 68.6241C359.299 21.2892 293.407 31.7022 280.59 55.5929C267.773 79.4835 269.296 140.084 285.861 144.354C292.467 146.057 306.54 141.885 320.863 133.252L311.873 196.856H364.958L346.683 111.677Z" fill="#B28B67"/>
<path fill-rule="evenodd" clip-rule="evenodd" d="M385.764 52.8673C387.479 51.1682 388.414 48.743 389.223 46.4402C390.063 44.048 390.879 41.6311 391.437 39.1412C392.552 34.1662 392.562 28.4449 389.013 24.5818C386.167 21.484 381.896 20.0946 377.955 19.7926C375.329 19.5912 372.632 19.959 370.114 20.7866C367.617 21.6075 365.464 23.2437 363.042 24.2592C362.95 18.8979 362.032 13.2882 359.312 8.71049C356.695 4.30599 352.522 1.83435 347.769 1.18045C342.892 0.509388 338.075 1.65079 333.708 4.01217C332.615 4.60356 331.532 5.22312 330.496 5.92434C329.628 6.51155 328.725 7.2187 327.707 7.4575C326.572 7.72404 326.009 7.06838 325.271 6.24017C324.406 5.26912 323.432 4.41384 322.401 3.65562C317.84 0.3036 311.857 -1.07462 306.574 0.934608C304.139 1.86032 301.772 3.43244 300.121 5.59882C298.649 7.52992 297.599 10.5932 295.567 11.9386C294.705 12.5097 294.096 11.7531 293.311 11.1938C292.132 10.3535 291.007 9.42624 289.814 8.60881C288.137 7.46037 286.322 6.60134 284.379 6.15169C281.533 5.4934 277.601 5.64768 276.788 9.3743C276.482 10.7741 276.717 12.2712 276.815 13.6815C276.951 15.6181 277.092 17.5541 277.26 19.4878C277.388 20.956 277.549 22.3741 277.826 23.8159C277.974 24.5845 278.437 26.0173 278.107 26.787C277.695 27.749 275.794 27.202 274.982 27.2355C273.378 27.3018 271.767 27.583 270.284 28.2684C269.135 28.7997 267.926 29.581 267.441 30.8985C267.143 31.7078 267.222 32.5391 267.362 33.3717C267.531 34.3709 267.338 34.9009 267.212 35.9091C265.058 34.8483 257.592 32.4913 256.653 36.3522C256.34 37.6378 257.052 39.0904 257.596 40.1745C258.549 42.0762 259.798 43.8142 261.075 45.4718C263.74 48.9296 266.92 51.9121 270.343 54.4628C266.333 56.2453 265.287 61.5031 268.758 64.6357C270.291 66.0188 272.352 66.3267 274.285 66.2382C274.993 66.2058 276.013 65.9338 276.57 66.0571C276.869 66.1233 277.19 66.3773 277.605 66.4057C280.334 66.5925 283.414 65.9351 286.082 65.3296C290.835 64.2507 295.334 61.999 299.009 58.5695C299.951 57.6898 300.73 57.1833 301.999 57.1963C303.11 57.2076 304.201 57.5124 305.312 57.5406C308.251 57.6156 310.901 56.1788 313.63 55.2225C313.797 58.9093 314.847 62.9698 316.355 66.2866C317.585 68.9913 320.153 69.3844 322.677 69.6217C330.747 70.381 338.845 69.5336 346.926 69.5449C339.104 71.3129 331.021 72.0416 323.269 74.1221C319.764 75.0624 322.44 77.4242 323.939 79.0615C326.406 81.7576 328.24 85.0982 329.513 88.6175C333.339 83.6297 340.102 80.3433 346.094 81.8756C352.715 83.5683 357.377 92.5215 353.143 98.9581C350.685 102.695 346.247 104.137 342.554 105.742C345.435 108.738 346.132 113.162 347.866 116.889C348.721 118.726 349.921 120.804 351.834 121.445C352.542 121.682 353.372 121.702 353.93 122.279C354.621 122.993 354.786 123.792 355.669 124.405C359.193 126.856 364.698 126.667 367.822 123.469C370.646 120.578 369.911 116.002 367.552 113.07C371.308 111.505 378.149 109.492 376.657 103.641C384.794 103.101 404.551 89.9039 393.63 80.2603C399.623 76.8729 405.13 68.5943 401.28 61.2967C398.315 55.6772 391.421 53.1653 385.764 52.8673Z" fill="#191847"/>
<path fill-rule="evenodd" clip-rule="evenodd" d="M460.902 473.339H290.026L267.636 747.61H522L460.902 473.339Z" fill="#C5CFD6"/>
<path fill-rule="evenodd" clip-rule="evenodd" d="M460.902 473.339H408.348L376.893 747.61H522L460.902 473.339Z" fill="black" fill-opacity="0.1"/>
<path fill-rule="evenodd" clip-rule="evenodd" d="M95.2135 426.35C76.9948 415.411 46.4282 429.466 46.4492 445.112C46.512 491.925 89.234 712.555 91.4646 726.502C93.6952 740.449 117.59 744.133 118.982 726.547C121.196 698.566 125.309 601.7 121.194 556.865C119.495 538.358 117.665 520.732 115.864 505.008C138.282 545.491 172.952 603.454 219.875 678.896L245.348 667.258C225.344 601.353 208.942 554.826 196.141 527.677C174.221 481.19 153.669 441.381 145.019 427.359C131.412 405.301 107.728 412.998 95.2135 426.35Z" fill="#B28B67"/>
<path fill-rule="evenodd" clip-rule="evenodd" d="M243.527 630.659L156.097 423.544C135.152 389.852 76.4286 430.4 83.5712 449.941C99.7873 494.306 182.258 637.933 187.09 651.151L243.527 630.659Z" fill="#1F28CF"/>
<path fill-rule="evenodd" clip-rule="evenodd" d="M246.525 655.062C252.314 660.081 256.127 664.127 257.963 667.201C260.197 670.941 262.895 676.713 266.057 684.517C262.149 686.713 227.025 706.446 160.684 743.717C151.944 735.208 150.285 728.895 155.706 724.78C161.127 720.664 165.596 717.187 169.113 714.349L203.614 662.6C204.278 661.604 205.663 661.454 206.708 662.264C206.726 662.278 206.744 662.292 206.761 662.306L214.972 669.013C222.123 668.773 227.406 667.694 230.82 665.776C233.595 664.217 236.683 660.821 240.086 655.588L240.086 655.587C241.392 653.579 244.156 653.247 246.259 654.846C246.35 654.915 246.438 654.987 246.525 655.062Z" fill="#E4E4E4"/>
<path fill-rule="evenodd" clip-rule="evenodd" d="M124.576 715.321C127.051 721.927 128.288 726.87 128.288 730.149C128.288 734.138 127.624 739.958 126.295 747.61C121.668 747.61 80.0832 747.61 1.54151 747.61C-1.70038 736.893 0.171021 731.107 7.15573 730.252C14.1404 729.397 19.9428 728.626 24.5627 727.937L82.5467 702.088C83.6625 701.59 84.9702 702.091 85.4676 703.207C85.4761 703.226 85.4843 703.245 85.4923 703.265L89.2195 712.306C95.6855 715.323 100.94 716.831 104.982 716.831C108.267 716.831 112.803 715.505 118.59 712.852L118.59 712.852C120.811 711.834 123.437 712.809 124.455 715.03C124.499 715.125 124.539 715.223 124.576 715.321Z" fill="#E4E4E4"/>
<path fill-rule="evenodd" clip-rule="evenodd" d="M40.3213 461.026C40.3213 519.788 68.2279 656.858 68.2456 669.797L128.288 669.843C119.5 547.537 116.383 485.725 118.939 484.408C122.773 482.431 276.094 499.716 322.078 499.716C388.386 499.716 415.816 457.901 418.042 380.441H286.688C259.943 383.303 120.438 411.441 68.6294 421.113C46.449 425.254 40.3213 444.838 40.3213 461.026Z" fill="#2B44FF"/>
<path fill-rule="evenodd" clip-rule="evenodd" d="M266.224 242.642L189.451 200.594C176.684 185.433 164.105 173.658 151.714 165.27C147.928 163.689 141.306 162.733 147.499 173.723C153.691 184.714 159.71 196.552 156.555 199.938C153.4 203.324 145.534 198.594 141.771 204.22C139.262 207.971 152.701 213.895 182.088 221.994L237.873 273.072L266.224 242.642ZM145.983 278.119L112.26 259.594C107.528 241.588 101.872 232.529 95.2908 232.417C90.2354 230.064 99.0394 252.816 89.4558 250.843C79.8723 248.87 56.4816 231.473 52.4512 235.005C46.4886 240.231 51.8053 256.276 58.0695 264.258C69.7774 279.176 79.4711 284.278 103.43 290.958C115.958 294.451 129.502 301.452 144.063 311.962L145.983 278.119Z" fill="#997659"/>
<path fill-rule="evenodd" clip-rule="evenodd" d="M303.614 233.275C276.723 232.991 240.863 227.311 202.601 203.024L187.575 236.534C213.967 262.726 251.077 284.246 283.525 283.335C309.096 282.616 322.165 251.686 303.614 233.275Z" fill="#2026A2"/>
<path fill-rule="evenodd" clip-rule="evenodd" d="M267.405 287.014C238.857 294.134 190.983 285.738 123.785 261.826C107.117 296.309 99.4115 320.893 100.669 335.578C158.316 365.69 207.724 379.115 248.429 380.002C247.136 404.155 250.076 427.137 259.952 448.137C280.255 491.309 399.142 451.327 439.115 459.196C464.148 377.9 415.746 344.861 415.708 292.843C415.665 235.878 369.924 148.195 363.195 148.195H301.823C298.436 191.7 281.392 239.647 267.405 287.014Z" fill="#1F28CF"/>
</svg>
