<svg width="183" height="88" viewBox="0 0 183 88" fill="none" xmlns="http://www.w3.org/2000/svg">
<rect y="0.0588379" width="182.805" height="87.4286" fill="#FCFCFC"/>
<g clip-path="url(#clip0)">
<path d="M78.9451 34.8355C78.9451 35.21 78.8568 35.5632 78.6802 35.8953C78.5036 36.2273 78.221 36.4993 77.8324 36.7113C77.4438 36.9162 76.9458 37.0186 76.3382 37.0186H75.0029V40.0071H73.7948V32.6419H76.3382C76.9034 32.6419 77.3803 32.7408 77.7688 32.9386C78.1645 33.1294 78.4577 33.3908 78.6484 33.7228C78.8462 34.0549 78.9451 34.4258 78.9451 34.8355ZM76.3382 36.0331C76.7974 36.0331 77.1401 35.9306 77.3661 35.7257C77.5922 35.5138 77.7052 35.2171 77.7052 34.8355C77.7052 34.0301 77.2496 33.6274 76.3382 33.6274H75.0029V36.0331H76.3382ZM79.6947 37.061C79.6947 36.4746 79.8148 35.9553 80.055 35.5032C80.3022 35.051 80.6343 34.7013 81.0511 34.454C81.475 34.1997 81.9413 34.0725 82.45 34.0725C82.9092 34.0725 83.3084 34.1644 83.6475 34.3481C83.9937 34.5247 84.2692 34.7472 84.4741 35.0157V34.1679H85.6928V40.0071H84.4741V39.1381C84.2692 39.4136 83.9901 39.6432 83.6369 39.8269C83.2836 40.0106 82.8809 40.1025 82.4288 40.1025C81.9272 40.1025 81.468 39.9753 81.0511 39.721C80.6343 39.4595 80.3022 39.0992 80.055 38.64C79.8148 38.1737 79.6947 37.6474 79.6947 37.061ZM84.4741 37.0822C84.4741 36.6795 84.3893 36.3298 84.2198 36.0331C84.0573 35.7363 83.8418 35.5102 83.5733 35.3548C83.3048 35.1994 83.0152 35.1217 82.7043 35.1217C82.3935 35.1217 82.1038 35.1994 81.8353 35.3548C81.5669 35.5032 81.3479 35.7257 81.1783 36.0225C81.0158 36.3121 80.9346 36.6583 80.9346 37.061C80.9346 37.4637 81.0158 37.817 81.1783 38.1207C81.3479 38.4245 81.5669 38.6577 81.8353 38.8202C82.1109 38.9756 82.4005 39.0533 82.7043 39.0533C83.0152 39.0533 83.3048 38.9756 83.5733 38.8202C83.8418 38.6647 84.0573 38.4387 84.2198 38.1419C84.3893 37.8381 84.4741 37.4849 84.4741 37.0822ZM92.5359 34.1679L88.954 42.7518H87.7035L88.8904 39.9117L86.5908 34.1679H87.9366L89.5792 38.6188L91.2854 34.1679H92.5359ZM100.516 34.0725C100.975 34.0725 101.385 34.1679 101.745 34.3587C102.113 34.5494 102.399 34.832 102.604 35.2065C102.816 35.5809 102.922 36.0331 102.922 36.5629V40.0071H101.724V36.7431C101.724 36.2203 101.593 35.8211 101.332 35.5456C101.071 35.263 100.714 35.1217 100.262 35.1217C99.8096 35.1217 99.4493 35.263 99.1808 35.5456C98.9194 35.8211 98.7887 36.2203 98.7887 36.7431V40.0071H97.5912V36.7431C97.5912 36.2203 97.4605 35.8211 97.1991 35.5456C96.9377 35.263 96.5809 35.1217 96.1287 35.1217C95.6766 35.1217 95.3163 35.263 95.0478 35.5456C94.7864 35.8211 94.6557 36.2203 94.6557 36.7431V40.0071H93.4476V34.1679H94.6557V34.8355C94.8535 34.5953 95.1043 34.4081 95.4081 34.2739C95.7119 34.1397 96.0369 34.0725 96.3831 34.0725C96.8494 34.0725 97.2662 34.1714 97.6336 34.3693C98.001 34.5671 98.2836 34.8532 98.4814 35.2277C98.658 34.8744 98.9335 34.5953 99.308 34.3905C99.6824 34.1785 100.085 34.0725 100.516 34.0725ZM109.811 36.9444C109.811 37.1634 109.797 37.3613 109.768 37.5379H105.307C105.342 38.0042 105.515 38.3786 105.826 38.6612C106.137 38.9438 106.518 39.0851 106.971 39.0851C107.621 39.0851 108.08 38.8131 108.348 38.2691H109.652C109.475 38.806 109.154 39.2476 108.687 39.5938C108.228 39.9329 107.656 40.1025 106.971 40.1025C106.412 40.1025 105.911 39.9788 105.466 39.7315C105.028 39.4772 104.682 39.124 104.427 38.6718C104.18 38.2126 104.056 37.6827 104.056 37.0822C104.056 36.4817 104.176 35.9553 104.417 35.5032C104.664 35.044 105.006 34.6907 105.445 34.4434C105.89 34.1962 106.398 34.0725 106.971 34.0725C107.522 34.0725 108.013 34.1926 108.444 34.4328C108.875 34.6731 109.21 35.0122 109.45 35.4502C109.691 35.8812 109.811 36.3792 109.811 36.9444ZM108.55 36.5629C108.542 36.1178 108.384 35.7611 108.073 35.4926C107.762 35.2241 107.377 35.0899 106.918 35.0899C106.501 35.0899 106.144 35.2241 105.847 35.4926C105.55 35.754 105.374 36.1108 105.317 36.5629H108.55ZM113.946 34.0725C114.405 34.0725 114.815 34.1679 115.175 34.3587C115.542 34.5494 115.828 34.832 116.033 35.2065C116.238 35.5809 116.341 36.0331 116.341 36.5629V40.0071H115.143V36.7431C115.143 36.2203 115.012 35.8211 114.751 35.5456C114.49 35.263 114.133 35.1217 113.681 35.1217C113.229 35.1217 112.868 35.263 112.6 35.5456C112.338 35.8211 112.208 36.2203 112.208 36.7431V40.0071H111V34.1679H112.208V34.8355C112.405 34.5953 112.656 34.4081 112.96 34.2739C113.271 34.1397 113.599 34.0725 113.946 34.0725ZM119.291 35.1535V38.3857C119.291 38.6047 119.341 38.7637 119.439 38.8626C119.545 38.9544 119.722 39.0003 119.969 39.0003H120.711V40.0071H119.757C119.213 40.0071 118.797 39.8799 118.507 39.6256C118.217 39.3712 118.072 38.9579 118.072 38.3857V35.1535H117.384V34.1679H118.072V32.7161H119.291V34.1679H120.711V35.1535H119.291ZM127.004 40.0813C126.51 40.0813 126.065 39.9965 125.669 39.8269C125.273 39.6503 124.963 39.403 124.736 39.0851C124.51 38.7672 124.397 38.3963 124.397 37.9724H125.69C125.718 38.2903 125.842 38.5517 126.061 38.7566C126.287 38.9615 126.602 39.0639 127.004 39.0639C127.421 39.0639 127.746 38.965 127.979 38.7672C128.212 38.5623 128.329 38.3009 128.329 37.983C128.329 37.7357 128.255 37.5344 128.106 37.3789C127.965 37.2235 127.785 37.1034 127.566 37.0186C127.354 36.9338 127.057 36.842 126.676 36.7431C126.195 36.6159 125.803 36.4887 125.499 36.3616C125.203 36.2273 124.948 36.0225 124.736 35.7469C124.524 35.4714 124.419 35.104 124.419 34.6448C124.419 34.2209 124.524 33.85 124.736 33.5321C124.948 33.2141 125.245 32.9704 125.627 32.8008C126.008 32.6313 126.45 32.5465 126.951 32.5465C127.665 32.5465 128.248 32.7267 128.7 33.087C129.159 33.4402 129.413 33.9277 129.463 34.5494H128.128C128.106 34.281 127.979 34.0513 127.746 33.8606C127.513 33.6698 127.206 33.5745 126.824 33.5745C126.478 33.5745 126.195 33.6628 125.976 33.8394C125.757 34.016 125.648 34.2704 125.648 34.6024C125.648 34.8285 125.715 35.0157 125.849 35.1641C125.99 35.3054 126.167 35.4184 126.379 35.5032C126.591 35.588 126.881 35.6798 127.248 35.7787C127.735 35.913 128.131 36.0472 128.435 36.1814C128.746 36.3157 129.007 36.5241 129.219 36.8067C129.438 37.0822 129.548 37.4531 129.548 37.9194C129.548 38.2938 129.445 38.6471 129.24 38.9791C129.043 39.3112 128.749 39.5797 128.361 39.7845C127.979 39.9824 127.527 40.0813 127.004 40.0813ZM136.325 36.9444C136.325 37.1634 136.311 37.3613 136.282 37.5379H131.821C131.856 38.0042 132.029 38.3786 132.34 38.6612C132.651 38.9438 133.033 39.0851 133.485 39.0851C134.135 39.0851 134.594 38.8131 134.862 38.2691H136.166C135.989 38.806 135.668 39.2476 135.202 39.5938C134.742 39.9329 134.17 40.1025 133.485 40.1025C132.927 40.1025 132.425 39.9788 131.98 39.7315C131.542 39.4772 131.196 39.124 130.941 38.6718C130.694 38.2126 130.57 37.6827 130.57 37.0822C130.57 36.4817 130.691 35.9553 130.931 35.5032C131.178 35.044 131.521 34.6907 131.959 34.4434C132.404 34.1962 132.912 34.0725 133.485 34.0725C134.036 34.0725 134.527 34.1926 134.958 34.4328C135.389 34.6731 135.724 35.0122 135.965 35.4502C136.205 35.8812 136.325 36.3792 136.325 36.9444ZM135.064 36.5629C135.057 36.1178 134.898 35.7611 134.587 35.4926C134.276 35.2241 133.891 35.0899 133.432 35.0899C133.015 35.0899 132.658 35.2241 132.361 35.4926C132.065 35.754 131.888 36.1108 131.832 36.5629H135.064ZM137.111 37.0822C137.111 36.4817 137.231 35.9553 137.471 35.5032C137.719 35.044 138.058 34.6907 138.489 34.4434C138.92 34.1962 139.414 34.0725 139.972 34.0725C140.679 34.0725 141.262 34.2421 141.721 34.5812C142.187 34.9133 142.502 35.3901 142.664 36.0119H141.361C141.255 35.7222 141.085 35.4961 140.852 35.3336C140.619 35.1711 140.326 35.0899 139.972 35.0899C139.478 35.0899 139.082 35.2665 138.785 35.6198C138.496 35.9659 138.351 36.4534 138.351 37.0822C138.351 37.711 138.496 38.202 138.785 38.5552C139.082 38.9085 139.478 39.0851 139.972 39.0851C140.672 39.0851 141.135 38.7778 141.361 38.1631H142.664C142.495 38.7566 142.177 39.2299 141.71 39.5832C141.244 39.9294 140.665 40.1025 139.972 40.1025C139.414 40.1025 138.92 39.9788 138.489 39.7315C138.058 39.4772 137.719 39.124 137.471 38.6718C137.231 38.2126 137.111 37.6827 137.111 37.0822ZM149.156 34.1679V40.0071H147.948V39.3182C147.757 39.5585 147.506 39.7492 147.196 39.8905C146.892 40.0247 146.567 40.0919 146.221 40.0919C145.761 40.0919 145.348 39.9965 144.981 39.8057C144.62 39.615 144.334 39.3324 144.122 38.9579C143.918 38.5835 143.815 38.1313 143.815 37.6015V34.1679H145.013V37.4213C145.013 37.9441 145.143 38.3468 145.405 38.6294C145.666 38.905 146.023 39.0427 146.475 39.0427C146.927 39.0427 147.284 38.905 147.545 38.6294C147.814 38.3468 147.948 37.9441 147.948 37.4213V34.1679H149.156ZM151.958 35.0157C152.135 34.719 152.368 34.4894 152.658 34.3269C152.954 34.1573 153.304 34.0725 153.707 34.0725V35.323H153.4C152.926 35.323 152.566 35.4431 152.319 35.6833C152.078 35.9235 151.958 36.3404 151.958 36.9338V40.0071H150.75V34.1679H151.958V35.0157ZM155.432 33.3943C155.213 33.3943 155.029 33.3201 154.881 33.1718C154.733 33.0234 154.658 32.8397 154.658 32.6207C154.658 32.4017 154.733 32.218 154.881 32.0696C155.029 31.9213 155.213 31.8471 155.432 31.8471C155.644 31.8471 155.824 31.9213 155.972 32.0696C156.121 32.218 156.195 32.4017 156.195 32.6207C156.195 32.8397 156.121 33.0234 155.972 33.1718C155.824 33.3201 155.644 33.3943 155.432 33.3943ZM156.025 34.1679V40.0071H154.817V34.1679H156.025ZM159.021 35.1535V38.3857C159.021 38.6047 159.07 38.7637 159.169 38.8626C159.275 38.9544 159.452 39.0003 159.699 39.0003H160.441V40.0071H159.487C158.943 40.0071 158.526 39.8799 158.237 39.6256C157.947 39.3712 157.802 38.9579 157.802 38.3857V35.1535H157.113V34.1679H157.802V32.7161H159.021V34.1679H160.441V35.1535H159.021ZM166.811 34.1679L163.229 42.7518H161.978L163.165 39.9117L160.866 34.1679H162.212L163.854 38.6188L165.56 34.1679H166.811Z" fill="#263238"/>
<path d="M75.6317 54.8481C75.2255 54.8481 74.8604 54.7774 74.5366 54.6361C74.2187 54.4889 73.9685 54.2888 73.786 54.0356C73.6035 53.7766 73.5093 53.4792 73.5034 53.1437H74.36C74.3894 53.4321 74.5072 53.6765 74.7132 53.8766C74.9252 54.0709 75.2313 54.1681 75.6317 54.1681C76.0144 54.1681 76.3146 54.0739 76.5325 53.8855C76.7562 53.6912 76.8681 53.4439 76.8681 53.1437C76.8681 52.9082 76.8033 52.7168 76.6738 52.5696C76.5442 52.4224 76.3823 52.3106 76.1881 52.234C75.9938 52.1575 75.7318 52.0751 75.4021 51.9868C74.9958 51.8808 74.6691 51.7748 74.4218 51.6689C74.1804 51.5629 73.9714 51.398 73.7948 51.1743C73.6241 50.9447 73.5387 50.6385 73.5387 50.2559C73.5387 49.9203 73.6241 49.623 73.7948 49.3639C73.9655 49.1049 74.204 48.9047 74.5101 48.7634C74.8222 48.6221 75.1784 48.5515 75.5787 48.5515C76.1557 48.5515 76.6267 48.6957 76.9917 48.9842C77.3626 49.2727 77.5716 49.6553 77.6187 50.1322H76.7356C76.7061 49.8967 76.5825 49.6907 76.3647 49.514C76.1468 49.3315 75.8584 49.2403 75.4992 49.2403C75.1636 49.2403 74.8899 49.3286 74.6779 49.5052C74.466 49.676 74.36 49.9173 74.36 50.2294C74.36 50.4531 74.4218 50.6356 74.5455 50.7769C74.675 50.9182 74.831 51.0271 75.0135 51.1037C75.2019 51.1743 75.4639 51.2567 75.7995 51.3509C76.2057 51.4628 76.5325 51.5747 76.7797 51.6865C77.027 51.7925 77.239 51.9603 77.4156 52.1899C77.5922 52.4136 77.6805 52.7198 77.6805 53.1083C77.6805 53.4086 77.601 53.6912 77.4421 53.9561C77.2831 54.2211 77.0476 54.436 76.7356 54.6008C76.4235 54.7656 76.0556 54.8481 75.6317 54.8481ZM78.5629 52.3489C78.5629 51.8543 78.663 51.4216 78.8631 51.0507C79.0633 50.6739 79.3371 50.3824 79.6844 50.1764C80.0377 49.9703 80.4292 49.8673 80.859 49.8673C81.2829 49.8673 81.6508 49.9585 81.9629 50.1411C82.2749 50.3236 82.5075 50.5532 82.6605 50.8299V49.9468H83.473V54.7863H82.6605V53.8855C82.5016 54.1681 82.2631 54.4036 81.9452 54.592C81.6332 54.7745 81.2682 54.8657 80.8501 54.8657C80.4204 54.8657 80.0318 54.7598 79.6844 54.5478C79.3371 54.3359 79.0633 54.0385 78.8631 53.6559C78.663 53.2732 78.5629 52.8375 78.5629 52.3489ZM82.6605 52.3577C82.6605 51.9927 82.5869 51.6747 82.4398 51.4039C82.2926 51.1331 82.0924 50.927 81.8392 50.7857C81.592 50.6385 81.3182 50.565 81.0179 50.565C80.7177 50.565 80.4439 50.6356 80.1966 50.7769C79.9494 50.9182 79.7521 51.1243 79.605 51.3951C79.4578 51.6659 79.3842 51.9838 79.3842 52.3489C79.3842 52.7198 79.4578 53.0436 79.605 53.3203C79.7521 53.5911 79.9494 53.8001 80.1966 53.9473C80.4439 54.0886 80.7177 54.1592 81.0179 54.1592C81.3182 54.1592 81.592 54.0886 81.8392 53.9473C82.0924 53.8001 82.2926 53.5911 82.4398 53.3203C82.5869 53.0436 82.6605 52.7227 82.6605 52.3577ZM86.8004 50.6091H85.7848V54.7863H84.9812V50.6091H84.3542V49.9468H84.9812V49.6024C84.9812 49.0607 85.1196 48.6663 85.3963 48.419C85.6789 48.1658 86.1293 48.0392 86.7474 48.0392V48.7104C86.3942 48.7104 86.144 48.7811 85.9968 48.9224C85.8555 49.0578 85.7848 49.2844 85.7848 49.6024V49.9468H86.8004V50.6091ZM92.153 52.1811C92.153 52.3341 92.1442 52.496 92.1265 52.6668H88.2585C88.2879 53.1437 88.4498 53.5175 88.7442 53.7883C89.0444 54.0533 89.4065 54.1857 89.8304 54.1857C90.1778 54.1857 90.4663 54.1063 90.6959 53.9473C90.9314 53.7824 91.0962 53.5646 91.1904 53.2938H92.0559C91.9263 53.7589 91.6673 54.1386 91.2787 54.433C90.8902 54.7215 90.4074 54.8657 89.8304 54.8657C89.3712 54.8657 88.9591 54.7627 88.594 54.5566C88.2349 54.3506 87.9523 54.0592 87.7463 53.6824C87.5402 53.2997 87.4372 52.8581 87.4372 52.3577C87.4372 51.8573 87.5373 51.4186 87.7374 51.0418C87.9376 50.665 88.2173 50.3766 88.5764 50.1764C88.9414 49.9703 89.3594 49.8673 89.8304 49.8673C90.2896 49.8673 90.6959 49.9674 91.0491 50.1676C91.4024 50.3677 91.6732 50.6444 91.8616 50.9977C92.0559 51.345 92.153 51.7395 92.153 52.1811ZM91.3229 52.0133C91.3229 51.7071 91.2552 51.4451 91.1198 51.2273C90.9844 51.0036 90.7989 50.8358 90.5634 50.7239C90.3338 50.6062 90.0777 50.5473 89.7951 50.5473C89.3889 50.5473 89.0415 50.6768 88.753 50.9359C88.4704 51.1949 88.3085 51.554 88.2673 52.0133H91.3229ZM99.6835 50.4325C99.6835 50.9447 99.5069 51.3715 99.1536 51.713C98.8063 52.0486 98.2735 52.2164 97.5552 52.2164H96.3718V54.7863H95.5682V48.6309H97.5552C98.2499 48.6309 98.7768 48.7987 99.136 49.1343C99.501 49.4699 99.6835 49.9026 99.6835 50.4325ZM97.5552 51.554C98.0026 51.554 98.3323 51.4569 98.5443 51.2626C98.7562 51.0683 98.8622 50.7916 98.8622 50.4325C98.8622 49.673 98.4265 49.2933 97.5552 49.2933H96.3718V51.554H97.5552ZM100.382 52.3489C100.382 51.8543 100.482 51.4216 100.682 51.0507C100.883 50.6739 101.156 50.3824 101.504 50.1764C101.857 49.9703 102.248 49.8673 102.678 49.8673C103.102 49.8673 103.47 49.9585 103.782 50.1411C104.094 50.3236 104.327 50.5532 104.48 50.8299V49.9468H105.292V54.7863H104.48V53.8855C104.321 54.1681 104.082 54.4036 103.764 54.592C103.452 54.7745 103.087 54.8657 102.669 54.8657C102.24 54.8657 101.851 54.7598 101.504 54.5478C101.156 54.3359 100.883 54.0385 100.682 53.6559C100.482 53.2732 100.382 52.8375 100.382 52.3489ZM104.48 52.3577C104.48 51.9927 104.406 51.6747 104.259 51.4039C104.112 51.1331 103.912 50.927 103.658 50.7857C103.411 50.6385 103.137 50.565 102.837 50.565C102.537 50.565 102.263 50.6356 102.016 50.7769C101.769 50.9182 101.571 51.1243 101.424 51.3951C101.277 51.6659 101.203 51.9838 101.203 52.3489C101.203 52.7198 101.277 53.0436 101.424 53.3203C101.571 53.5911 101.769 53.8001 102.016 53.9473C102.263 54.0886 102.537 54.1592 102.837 54.1592C103.137 54.1592 103.411 54.0886 103.658 53.9473C103.912 53.8001 104.112 53.5911 104.259 53.3203C104.406 53.0436 104.48 52.7227 104.48 52.3577ZM110.819 49.9468L107.904 57.0647H107.074L108.028 54.7333L106.076 49.9468H106.968L108.487 53.8678L109.988 49.9468H110.819ZM117.446 49.8585C117.823 49.8585 118.159 49.9379 118.453 50.0969C118.747 50.25 118.98 50.4825 119.151 50.7946C119.321 51.1066 119.407 51.4863 119.407 51.9338V54.7863H118.612V52.0486C118.612 51.5658 118.491 51.1979 118.25 50.9447C118.014 50.6856 117.693 50.5561 117.287 50.5561C116.869 50.5561 116.537 50.6915 116.289 50.9624C116.042 51.2273 115.918 51.6129 115.918 52.1192V54.7863H115.124V52.0486C115.124 51.5658 115.003 51.1979 114.761 50.9447C114.526 50.6856 114.205 50.5561 113.799 50.5561C113.381 50.5561 113.048 50.6915 112.801 50.9624C112.554 51.2273 112.43 51.6129 112.43 52.1192V54.7863H111.626V49.9468H112.43V50.6444C112.589 50.3913 112.801 50.197 113.066 50.0616C113.337 49.9262 113.634 49.8585 113.958 49.8585C114.364 49.8585 114.723 49.9497 115.035 50.1322C115.347 50.3147 115.58 50.5826 115.733 50.9359C115.868 50.5944 116.092 50.3295 116.404 50.1411C116.716 49.9527 117.063 49.8585 117.446 49.8585ZM125.141 52.1811C125.141 52.3341 125.132 52.496 125.114 52.6668H121.246C121.275 53.1437 121.437 53.5175 121.732 53.7883C122.032 54.0533 122.394 54.1857 122.818 54.1857C123.165 54.1857 123.454 54.1063 123.683 53.9473C123.919 53.7824 124.084 53.5646 124.178 53.2938H125.043C124.914 53.7589 124.655 54.1386 124.266 54.433C123.878 54.7215 123.395 54.8657 122.818 54.8657C122.359 54.8657 121.947 54.7627 121.582 54.5566C121.222 54.3506 120.94 54.0592 120.734 53.6824C120.528 53.2997 120.425 52.8581 120.425 52.3577C120.425 51.8573 120.525 51.4186 120.725 51.0418C120.925 50.665 121.205 50.3766 121.564 50.1764C121.929 49.9703 122.347 49.8673 122.818 49.8673C123.277 49.8673 123.683 49.9674 124.037 50.1676C124.39 50.3677 124.661 50.6444 124.849 50.9977C125.043 51.345 125.141 51.7395 125.141 52.1811ZM124.31 52.0133C124.31 51.7071 124.243 51.4451 124.107 51.2273C123.972 51.0036 123.786 50.8358 123.551 50.7239C123.321 50.6062 123.065 50.5473 122.783 50.5473C122.376 50.5473 122.029 50.6768 121.741 50.9359C121.458 51.1949 121.296 51.554 121.255 52.0133H124.31ZM128.559 49.8585C129.148 49.8585 129.625 50.038 129.99 50.3972C130.355 50.7504 130.537 51.2626 130.537 51.9338V54.7863H129.743V52.0486C129.743 51.5658 129.622 51.1979 129.381 50.9447C129.139 50.6856 128.809 50.5561 128.391 50.5561C127.968 50.5561 127.629 50.6886 127.376 50.9535C127.129 51.2185 127.005 51.6041 127.005 52.1104V54.7863H126.201V49.9468H127.005V50.6356C127.164 50.3883 127.379 50.197 127.65 50.0616C127.926 49.9262 128.23 49.8585 128.559 49.8585ZM132.83 50.6091V53.4616C132.83 53.6971 132.88 53.8649 132.981 53.965C133.081 54.0592 133.254 54.1063 133.502 54.1063H134.093V54.7863H133.369C132.922 54.7863 132.586 54.6832 132.362 54.4772C132.139 54.2711 132.027 53.9326 132.027 53.4616V50.6091H131.4V49.9468H132.027V48.7281H132.83V49.9468H134.093V50.6091H132.83Z" fill="#263238"/>
</g>
<g clip-path="url(#clip1)">
<path fill-rule="evenodd" clip-rule="evenodd" d="M57 29.0588H21C20.2044 29.0588 19.4413 29.3749 18.8787 29.9375C18.3161 30.5001 18 31.2632 18 32.0588V56.0588C18 56.8545 18.3161 57.6176 18.8787 58.1802C19.4413 58.7428 20.2044 59.0588 21 59.0588H57C57.7957 59.0588 58.5587 58.7428 59.1213 58.1802C59.6839 57.6176 60 56.8545 60 56.0588V32.0588C60 31.2632 59.6839 30.5001 59.1213 29.9375C58.5587 29.3749 57.7957 29.0588 57 29.0588ZM21 26.0588C19.4087 26.0588 17.8826 26.691 16.7574 27.8162C15.6321 28.9414 15 30.4675 15 32.0588L15 56.0588C15 57.6501 15.6321 59.1763 16.7574 60.3015C17.8826 61.4267 19.4087 62.0588 21 62.0588H57C58.5913 62.0588 60.1174 61.4267 61.2426 60.3015C62.3679 59.1763 63 57.6501 63 56.0588V32.0588C63 30.4675 62.3679 28.9414 61.2426 27.8162C60.1174 26.691 58.5913 26.0588 57 26.0588H21Z" fill="#263238"/>
<path d="M48 36.5591C48 36.1613 48.158 35.7797 48.4393 35.4984C48.7206 35.2171 49.1022 35.0591 49.5 35.0591H55.5C55.8978 35.0591 56.2794 35.2171 56.5607 35.4984C56.842 35.7797 57 36.1613 57 36.5591V39.5591C57 39.9569 56.842 40.3384 56.5607 40.6197C56.2794 40.901 55.8978 41.0591 55.5 41.0591H49.5C49.1022 41.0591 48.7206 40.901 48.4393 40.6197C48.158 40.3384 48 39.9569 48 39.5591V36.5591ZM18 47.0591H60V53.0591H18V47.0591Z" fill="#263238"/>
<path d="M54.6002 52.7583H53.3252V48.5583C53.3252 47.2327 52.2509 46.1583 50.9252 46.1583H46.2752C44.9496 46.1583 43.8752 47.2327 43.8752 48.5583V52.7583H42.6002C42.2684 52.7583 42.0002 53.0265 42.0002 53.3583V60.5583C42.0002 60.8902 42.2684 61.1583 42.6002 61.1583H54.6002C54.9321 61.1583 55.2002 60.8902 55.2002 60.5583V53.3583C55.2002 53.0265 54.9321 52.7583 54.6002 52.7583ZM49.1252 57.2021V58.1958C49.1252 58.2783 49.0577 58.3458 48.9752 58.3458H48.2252C48.1427 58.3458 48.0752 58.2783 48.0752 58.1958V57.2021C47.9205 57.091 47.8049 56.9336 47.7453 56.7526C47.6857 56.5717 47.685 56.3765 47.7433 56.1951C47.8017 56.0137 47.9161 55.8555 48.0701 55.7433C48.2241 55.6311 48.4097 55.5706 48.6002 55.5706C48.7908 55.5706 48.9764 55.6311 49.1304 55.7433C49.2844 55.8555 49.3988 56.0137 49.4572 56.1951C49.5155 56.3765 49.5148 56.5717 49.4552 56.7526C49.3955 56.9336 49.28 57.091 49.1252 57.2021ZM51.9752 52.7583H45.2252V48.5583C45.2252 47.979 45.6959 47.5083 46.2752 47.5083H50.9252C51.5046 47.5083 51.9752 47.979 51.9752 48.5583V52.7583Z" fill="#F69225"/>
</g>
<defs>
<clipPath id="clip0">
<rect width="94.0519" height="30.026" fill="white" transform="translate(73 28.0071)"/>
</clipPath>
<clipPath id="clip1">
<rect width="48" height="48" fill="white" transform="translate(15 20.0588)"/>
</clipPath>
</defs>
</svg>
