<svg width="183" height="88" viewBox="0 0 183 88" fill="none" xmlns="http://www.w3.org/2000/svg">
<rect y="0.0588379" width="182.364" height="87.4286" fill="#FCFCFC"/>
<g clip-path="url(#clip0)">
<path d="M91.1291 33.084V34.0696H88.0029V36.2421H90.4403V37.2276H88.0029V40.4492H86.7948V33.084H91.1291ZM91.846 37.5031C91.846 36.9168 91.9661 36.3975 92.2064 35.9453C92.4536 35.4932 92.7857 35.1435 93.2025 34.8962C93.6264 34.6418 94.0927 34.5147 94.6014 34.5147C95.0606 34.5147 95.4598 34.6065 95.7989 34.7902C96.1451 34.9668 96.4206 35.1894 96.6255 35.4578V34.6101H97.8442V40.4492H96.6255V39.5802C96.4206 39.8558 96.1415 40.0854 95.7883 40.2691C95.435 40.4528 95.0323 40.5446 94.5802 40.5446C94.0786 40.5446 93.6193 40.4174 93.2025 40.1631C92.7857 39.9017 92.4536 39.5414 92.2064 39.0822C91.9661 38.6159 91.846 38.0895 91.846 37.5031ZM96.6255 37.5243C96.6255 37.1216 96.5407 36.7719 96.3711 36.4752C96.2086 36.1785 95.9932 35.9524 95.7247 35.797C95.4562 35.6415 95.1666 35.5638 94.8557 35.5638C94.5448 35.5638 94.2552 35.6415 93.9867 35.797C93.7182 35.9453 93.4992 36.1679 93.3297 36.4646C93.1672 36.7543 93.0859 37.1004 93.0859 37.5031C93.0859 37.9058 93.1672 38.2591 93.3297 38.5629C93.4992 38.8667 93.7182 39.0998 93.9867 39.2623C94.2622 39.4177 94.5519 39.4955 94.8557 39.4955C95.1666 39.4955 95.4562 39.4177 95.7247 39.2623C95.9932 39.1069 96.2086 38.8808 96.3711 38.5841C96.5407 38.2803 96.6255 37.927 96.6255 37.5243ZM101.55 40.5446C101.091 40.5446 100.678 40.4633 100.311 40.3009C99.9502 40.1313 99.6641 39.9052 99.4522 39.6226C99.2402 39.333 99.1272 39.0115 99.113 38.6583H100.364C100.385 38.9055 100.501 39.1139 100.713 39.2835C100.932 39.446 101.204 39.5272 101.529 39.5272C101.868 39.5272 102.13 39.4637 102.313 39.3365C102.504 39.2023 102.6 39.0327 102.6 38.8278C102.6 38.6088 102.494 38.4463 102.282 38.3403C102.077 38.2344 101.748 38.1178 101.296 37.9906C100.858 37.8705 100.501 37.7539 100.226 37.6409C99.9502 37.5279 99.71 37.3548 99.5051 37.1216C99.3073 36.8885 99.2084 36.5812 99.2084 36.1997C99.2084 35.8888 99.3003 35.6062 99.484 35.3519C99.6676 35.0905 99.929 34.8856 100.268 34.7372C100.614 34.5889 101.01 34.5147 101.455 34.5147C102.119 34.5147 102.653 34.6842 103.055 35.0233C103.465 35.3554 103.684 35.8111 103.712 36.3904H102.504C102.483 36.129 102.377 35.9206 102.186 35.7652C101.996 35.6097 101.738 35.532 101.413 35.532C101.095 35.532 100.851 35.5921 100.681 35.7122C100.512 35.8323 100.427 35.9912 100.427 36.1891C100.427 36.3445 100.484 36.4752 100.597 36.5812C100.71 36.6871 100.847 36.7719 101.01 36.8355C101.172 36.892 101.413 36.9662 101.731 37.058C102.154 37.1711 102.501 37.2877 102.769 37.4078C103.045 37.5208 103.281 37.6904 103.479 37.9164C103.677 38.1425 103.779 38.4428 103.786 38.8172C103.786 39.1493 103.695 39.446 103.511 39.7074C103.327 39.9688 103.066 40.1737 102.727 40.322C102.395 40.4704 102.003 40.5446 101.55 40.5446ZM106.501 35.5956V38.8278C106.501 39.0468 106.551 39.2058 106.65 39.3047C106.756 39.3965 106.932 39.4425 107.18 39.4425H107.921V40.4492H106.968C106.424 40.4492 106.007 40.322 105.717 40.0677C105.427 39.8134 105.283 39.4001 105.283 38.8278V35.5956H104.594V34.6101H105.283V33.1582H106.501V34.6101H107.921V35.5956H106.501ZM114.193 33.084C114.978 33.084 115.663 33.2359 116.249 33.5397C116.843 33.8364 117.298 34.2674 117.616 34.8326C117.941 35.3907 118.104 36.0442 118.104 36.7931C118.104 37.542 117.941 38.192 117.616 38.743C117.298 39.2941 116.843 39.718 116.249 40.0147C115.663 40.3044 114.978 40.4492 114.193 40.4492H111.788V33.084H114.193ZM114.193 39.4637C115.055 39.4637 115.716 39.2305 116.175 38.7642C116.634 38.2979 116.864 37.6409 116.864 36.7931C116.864 35.9383 116.634 35.2706 116.175 34.7902C115.716 34.3098 115.055 34.0696 114.193 34.0696H112.996V39.4637H114.193ZM124.653 37.3866C124.653 37.6056 124.639 37.8034 124.61 37.98H120.149C120.184 38.4463 120.357 38.8208 120.668 39.1033C120.979 39.3859 121.361 39.5272 121.813 39.5272C122.463 39.5272 122.922 39.2552 123.19 38.7112H124.494C124.317 39.2482 123.996 39.6897 123.529 40.0359C123.07 40.375 122.498 40.5446 121.813 40.5446C121.255 40.5446 120.753 40.421 120.308 40.1737C119.87 39.9193 119.524 39.5661 119.269 39.1139C119.022 38.6547 118.898 38.1249 118.898 37.5243C118.898 36.9238 119.018 36.3975 119.259 35.9453C119.506 35.4861 119.849 35.1329 120.287 34.8856C120.732 34.6383 121.24 34.5147 121.813 34.5147C122.364 34.5147 122.855 34.6348 123.286 34.875C123.717 35.1152 124.052 35.4543 124.292 35.8923C124.533 36.3233 124.653 36.8214 124.653 37.3866ZM123.392 37.0051C123.385 36.56 123.226 36.2032 122.915 35.9347C122.604 35.6663 122.219 35.532 121.76 35.532C121.343 35.532 120.986 35.6663 120.689 35.9347C120.393 36.1961 120.216 36.5529 120.159 37.0051H123.392ZM127.05 32.6071V40.4492H125.842V32.6071H127.05ZM129.251 33.8364C129.032 33.8364 128.848 33.7623 128.699 33.6139C128.551 33.4655 128.477 33.2818 128.477 33.0628C128.477 32.8438 128.551 32.6601 128.699 32.5118C128.848 32.3634 129.032 32.2892 129.251 32.2892C129.463 32.2892 129.643 32.3634 129.791 32.5118C129.939 32.6601 130.014 32.8438 130.014 33.0628C130.014 33.2818 129.939 33.4655 129.791 33.6139C129.643 33.7623 129.463 33.8364 129.251 33.8364ZM129.844 34.6101V40.4492H128.636V34.6101H129.844ZM133.687 39.3683L135.341 34.6101H136.623L134.397 40.4492H132.956L130.741 34.6101H132.034L133.687 39.3683ZM142.888 37.3866C142.888 37.6056 142.874 37.8034 142.845 37.98H138.384C138.419 38.4463 138.592 38.8208 138.903 39.1033C139.214 39.3859 139.596 39.5272 140.048 39.5272C140.698 39.5272 141.157 39.2552 141.425 38.7112H142.729C142.552 39.2482 142.231 39.6897 141.764 40.0359C141.305 40.375 140.733 40.5446 140.048 40.5446C139.49 40.5446 138.988 40.421 138.543 40.1737C138.105 39.9193 137.759 39.5661 137.504 39.1139C137.257 38.6547 137.133 38.1249 137.133 37.5243C137.133 36.9238 137.253 36.3975 137.494 35.9453C137.741 35.4861 138.084 35.1329 138.522 34.8856C138.967 34.6383 139.475 34.5147 140.048 34.5147C140.599 34.5147 141.09 34.6348 141.521 34.875C141.952 35.1152 142.287 35.4543 142.527 35.8923C142.768 36.3233 142.888 36.8214 142.888 37.3866ZM141.627 37.0051C141.62 36.56 141.461 36.2032 141.15 35.9347C140.839 35.6663 140.454 35.532 139.995 35.532C139.578 35.532 139.221 35.6663 138.924 35.9347C138.628 36.1961 138.451 36.5529 138.394 37.0051H141.627ZM145.285 35.4578C145.461 35.1611 145.695 34.9315 145.984 34.769C146.281 34.5995 146.631 34.5147 147.033 34.5147V35.7652H146.726C146.253 35.7652 145.892 35.8853 145.645 36.1255C145.405 36.3657 145.285 36.7825 145.285 37.376V40.4492H144.077V34.6101H145.285V35.4578ZM153.4 34.6101L149.818 43.1939H148.568L149.755 40.3538L147.455 34.6101H148.801L150.443 39.061L152.15 34.6101H153.4Z" fill="#263238"/>
<path d="M94.4161 49.0731L92.6322 55.2284H91.7314L90.3008 50.2741L88.8171 55.2284L87.9252 55.2372L86.2031 49.0731H87.0597L88.4021 54.2923L89.8857 49.0731H90.7865L92.1995 54.2746L93.5506 49.0731H94.4161ZM97.4062 55.3079C96.9529 55.3079 96.5408 55.2048 96.1698 54.9988C95.8048 54.7927 95.5163 54.5013 95.3044 54.1245C95.0983 53.7418 94.9953 53.3003 94.9953 52.7998C94.9953 52.3053 95.1013 51.8696 95.3132 51.4928C95.5311 51.1101 95.8254 50.8187 96.1963 50.6185C96.5673 50.4125 96.9823 50.3094 97.4415 50.3094C97.9008 50.3094 98.3158 50.4125 98.6867 50.6185C99.0576 50.8187 99.3491 51.1072 99.561 51.484C99.7789 51.8608 99.8878 52.2994 99.8878 52.7998C99.8878 53.3003 99.7759 53.7418 99.5522 54.1245C99.3343 54.5013 99.037 54.7927 98.6602 54.9988C98.2834 55.2048 97.8654 55.3079 97.4062 55.3079ZM97.4062 54.6014C97.6947 54.6014 97.9655 54.5337 98.2187 54.3983C98.4718 54.2629 98.675 54.0597 98.828 53.7889C98.987 53.5181 99.0665 53.1884 99.0665 52.7998C99.0665 52.4113 98.9899 52.0816 98.8369 51.8107C98.6838 51.5399 98.4836 51.3397 98.2363 51.2102C97.9891 51.0748 97.7212 51.0071 97.4327 51.0071C97.1383 51.0071 96.8675 51.0748 96.6202 51.2102C96.3789 51.3397 96.1846 51.5399 96.0374 51.8107C95.8902 52.0816 95.8166 52.4113 95.8166 52.7998C95.8166 53.1943 95.8873 53.5269 96.0285 53.7977C96.1757 54.0686 96.37 54.2717 96.6114 54.4071C96.8528 54.5366 97.1177 54.6014 97.4062 54.6014ZM101.748 51.1749C101.889 50.8982 102.09 50.6833 102.349 50.5302C102.613 50.3771 102.934 50.3006 103.311 50.3006V51.1307H103.099C102.198 51.1307 101.748 51.6194 101.748 52.5967V55.2284H100.944V50.3889H101.748V51.1749ZM105.042 48.6933V55.2284H104.239V48.6933H105.042ZM106.112 52.791C106.112 52.2964 106.212 51.8637 106.412 51.4928C106.612 51.116 106.886 50.8246 107.233 50.6185C107.587 50.4125 107.981 50.3094 108.417 50.3094C108.794 50.3094 109.144 50.3977 109.468 50.5744C109.792 50.7451 110.039 50.9718 110.21 51.2544V48.6933H111.022V55.2284H110.21V54.3188C110.051 54.6073 109.815 54.8457 109.503 55.0341C109.191 55.2166 108.826 55.3079 108.408 55.3079C107.978 55.3079 107.587 55.2019 107.233 54.99C106.886 54.778 106.612 54.4807 106.412 54.098C106.212 53.7153 106.112 53.2796 106.112 52.791ZM110.21 52.7998C110.21 52.4348 110.136 52.1169 109.989 51.8461C109.842 51.5752 109.641 51.3692 109.388 51.2279C109.141 51.0807 108.867 51.0071 108.567 51.0071C108.267 51.0071 107.993 51.0777 107.746 51.219C107.498 51.3603 107.301 51.5664 107.154 51.8372C107.007 52.108 106.933 52.426 106.933 52.791C106.933 53.1619 107.007 53.4857 107.154 53.7624C107.301 54.0332 107.498 54.2422 107.746 54.3894C107.993 54.5307 108.267 54.6014 108.567 54.6014C108.867 54.6014 109.141 54.5307 109.388 54.3894C109.641 54.2422 109.842 54.0332 109.989 53.7624C110.136 53.4857 110.21 53.1648 110.21 52.7998ZM118.827 50.3889L117.317 55.2284H116.487L115.321 51.3868L114.155 55.2284H113.325L111.806 50.3889H112.627L113.74 54.4513L114.941 50.3889H115.762L116.937 54.4601L118.032 50.3889H118.827ZM120.039 49.6029C119.886 49.6029 119.757 49.55 119.651 49.444C119.545 49.338 119.492 49.2085 119.492 49.0554C119.492 48.9023 119.545 48.7728 119.651 48.6668C119.757 48.5609 119.886 48.5079 120.039 48.5079C120.187 48.5079 120.31 48.5609 120.41 48.6668C120.516 48.7728 120.569 48.9023 120.569 49.0554C120.569 49.2085 120.516 49.338 120.41 49.444C120.31 49.55 120.187 49.6029 120.039 49.6029ZM120.428 50.3889V55.2284H119.624V50.3889H120.428ZM121.497 52.791C121.497 52.2964 121.598 51.8637 121.798 51.4928C121.998 51.116 122.272 50.8246 122.619 50.6185C122.972 50.4125 123.367 50.3094 123.802 50.3094C124.179 50.3094 124.529 50.3977 124.853 50.5744C125.177 50.7451 125.424 50.9718 125.595 51.2544V48.6933H126.408V55.2284H125.595V54.3188C125.436 54.6073 125.201 54.8457 124.889 55.0341C124.577 55.2166 124.212 55.3079 123.794 55.3079C123.364 55.3079 122.972 55.2019 122.619 54.99C122.272 54.778 121.998 54.4807 121.798 54.098C121.598 53.7153 121.497 53.2796 121.497 52.791ZM125.595 52.7998C125.595 52.4348 125.521 52.1169 125.374 51.8461C125.227 51.5752 125.027 51.3692 124.774 51.2279C124.527 51.0807 124.253 51.0071 123.952 51.0071C123.652 51.0071 123.378 51.0777 123.131 51.219C122.884 51.3603 122.687 51.5664 122.54 51.8372C122.392 52.108 122.319 52.426 122.319 52.791C122.319 53.1619 122.392 53.4857 122.54 53.7624C122.687 54.0332 122.884 54.2422 123.131 54.3894C123.378 54.5307 123.652 54.6014 123.952 54.6014C124.253 54.6014 124.527 54.5307 124.774 54.3894C125.027 54.2422 125.227 54.0332 125.374 53.7624C125.521 53.4857 125.595 53.1648 125.595 52.7998ZM132.181 52.6232C132.181 52.7763 132.172 52.9382 132.155 53.1089H128.287C128.316 53.5858 128.478 53.9596 128.772 54.2305C129.073 54.4954 129.435 54.6279 129.859 54.6279C130.206 54.6279 130.494 54.5484 130.724 54.3894C130.96 54.2246 131.124 54.0067 131.219 53.7359H132.084C131.955 54.201 131.695 54.5808 131.307 54.8751C130.918 55.1636 130.436 55.3079 129.859 55.3079C129.399 55.3079 128.987 55.2048 128.622 54.9988C128.263 54.7927 127.981 54.5013 127.774 54.1245C127.568 53.7418 127.465 53.3003 127.465 52.7998C127.465 52.2994 127.565 51.8608 127.766 51.484C127.966 51.1072 128.245 50.8187 128.605 50.6185C128.97 50.4125 129.388 50.3094 129.859 50.3094C130.318 50.3094 130.724 50.4095 131.077 50.6097C131.431 50.8099 131.701 51.0866 131.89 51.4398C132.084 51.7872 132.181 52.1816 132.181 52.6232ZM131.351 52.4554C131.351 52.1493 131.283 51.8873 131.148 51.6694C131.013 51.4457 130.827 51.2779 130.592 51.1661C130.362 51.0483 130.106 50.9894 129.823 50.9894C129.417 50.9894 129.07 51.119 128.781 51.378C128.499 51.6371 128.337 51.9962 128.295 52.4554H131.351Z" fill="#263238"/>
</g>
<path d="M72.8798 44.9746L68.3798 34.4746C68.2649 34.2034 68.0728 33.9721 67.8274 33.8094C67.582 33.6467 67.2942 33.5598 66.9998 33.5596H62.4998V30.5596C62.4998 30.1617 62.3417 29.7802 62.0604 29.4989C61.7791 29.2176 61.3976 29.0596 60.9998 29.0596H32.4998C32.1019 29.0596 31.7204 29.2176 31.4391 29.4989C31.1578 29.7802 30.9998 30.1617 30.9998 30.5596V56.0596C30.9998 56.4574 31.1578 56.8389 31.4391 57.1202C31.7204 57.4015 32.1019 57.5596 32.4998 57.5596H35.7098C36.0552 58.8306 36.8093 59.9527 37.8557 60.7527C38.902 61.5527 40.1826 61.9861 41.4998 61.9861C42.8169 61.9861 44.0975 61.5527 45.1439 60.7527C46.1903 59.9527 46.9443 58.8306 47.2898 57.5596H56.7098C57.0552 58.8306 57.8093 59.9527 58.8557 60.7527C59.902 61.5527 61.1826 61.9861 62.4998 61.9861C63.8169 61.9861 65.0975 61.5527 66.1439 60.7527C67.1903 59.9527 67.9443 58.8306 68.2898 57.5596H71.4998C71.8976 57.5596 72.2791 57.4015 72.5604 57.1202C72.8417 56.8389 72.9998 56.4574 72.9998 56.0596V45.5596C72.9994 45.3585 72.9586 45.1596 72.8798 44.9746ZM62.4998 36.5596H66.0098L69.2198 44.0596H62.4998V36.5596ZM41.4998 59.0596C40.9064 59.0596 40.3264 58.8836 39.833 58.554C39.3397 58.2243 38.9552 57.7558 38.7281 57.2076C38.5011 56.6594 38.4416 56.0562 38.5574 55.4743C38.6732 54.8924 38.9589 54.3578 39.3784 53.9383C39.798 53.5187 40.3325 53.233 40.9145 53.1172C41.4964 53.0015 42.0996 53.0609 42.6478 53.2879C43.196 53.515 43.6645 53.8995 43.9942 54.3929C44.3238 54.8862 44.4998 55.4662 44.4998 56.0596C44.4998 56.8552 44.1837 57.6183 43.6211 58.1809C43.0585 58.7435 42.2954 59.0596 41.4998 59.0596ZM56.7098 54.5596H47.2898C46.9443 53.2885 46.1903 52.1664 45.1439 51.3665C44.0975 50.5665 42.8169 50.1331 41.4998 50.1331C40.1826 50.1331 38.902 50.5665 37.8557 51.3665C36.8093 52.1664 36.0552 53.2885 35.7098 54.5596H33.9998V32.0596H59.4998V50.8996C58.8167 51.296 58.2187 51.8234 57.7399 52.4514C57.2611 53.0795 56.911 53.7959 56.7098 54.5596ZM62.4998 59.0596C61.9064 59.0596 61.3264 58.8836 60.833 58.554C60.3397 58.2243 59.9552 57.7558 59.7281 57.2076C59.5011 56.6594 59.4416 56.0562 59.5574 55.4743C59.6732 54.8924 59.9589 54.3578 60.3784 53.9383C60.798 53.5187 61.3325 53.233 61.9145 53.1172C62.4964 53.0015 63.0996 53.0609 63.6478 53.2879C64.196 53.515 64.6645 53.8995 64.9942 54.3929C65.3238 54.8862 65.4998 55.4662 65.4998 56.0596C65.4998 56.8552 65.1837 57.6183 64.6211 58.1809C64.0585 58.7435 63.2954 59.0596 62.4998 59.0596ZM69.9998 54.5596H68.2898C67.9581 53.2749 67.2099 52.1363 66.1622 51.3221C65.1146 50.5079 63.8266 50.0639 62.4998 50.0596V47.0596H69.9998V54.5596Z" fill="#263238"/>
<defs>
<clipPath id="clip0">
<rect width="67.5584" height="30.026" fill="white" transform="translate(86 28.4492)"/>
</clipPath>
</defs>
</svg>
